<svg width="20" height="20" viewBox="0 0 20 20" fill="none" xmlns="http://www.w3.org/2000/svg">
<path fill-rule="evenodd" clip-rule="evenodd" d="M6.62179 0.0263647C4.99391 0.0692995 3.75751 0.260701 2.57836 0.986982C1.65003 1.55895 0.808333 2.50575 0.412504 3.80985C-0.0291318 5.26503 0.0293712 6.82188 0.0189154 8.41706C0.00833503 10.0506 -0.025895 11.78 0.0364667 13.4057C0.0992019 15.0392 0.264132 16.2379 0.999029 17.4249C2.63811 20.0729 5.52654 19.9787 8.41174 19.9828C9.88066 19.9848 12.0285 20.0275 13.4179 19.9704C14.9947 19.9055 16.2749 19.7369 17.4261 18.9998C20.1186 17.2759 19.9951 14.5919 19.9997 11.5837C20.0023 9.92612 19.9881 8.27755 19.9633 6.62351C19.9382 4.94308 19.7662 3.81968 19.0155 2.58005C17.3974 -0.0921139 14.4449 0.000227369 11.607 0.00445862C9.9485 0.00694759 8.27643 -0.0171923 6.62179 0.0263647ZM9.65088 6.64304C11.6023 6.44417 13.1444 7.92461 13.3127 9.65283C13.415 10.7038 13.0058 11.6584 12.488 12.1845C12.2157 12.4611 11.9543 12.723 11.5547 12.9324C9.39396 14.0649 6.76681 12.5857 6.60424 10.2934C6.46259 8.29684 7.86181 6.82523 9.65088 6.64304ZM15.0683 3.45368C14.5243 3.60476 13.9626 4.20261 14.1625 4.90997C14.3081 5.42532 14.917 5.98309 15.6023 5.7999C16.1249 5.66002 16.695 5.05782 16.5088 4.35282C16.3719 3.83474 15.7667 3.25966 15.0683 3.45368ZM9.64578 4.87351C8.23311 4.96821 7.25574 5.44734 6.32293 6.35731C6.24289 6.43534 6.22497 6.45351 6.16174 6.53166C5.73018 7.06331 5.45123 7.40728 5.17502 8.09797C4.3744 10.1005 4.98395 12.4855 6.4896 13.7858C6.92153 14.1586 7.39304 14.5188 8.04976 14.7769C9.37529 15.2976 11.0441 15.2436 12.312 14.5871C15.5272 12.9225 16.0479 8.53566 13.4293 6.17499C12.5407 5.37392 11.3497 4.75939 9.64578 4.87351Z" fill="#A3A3A3"/>
</svg>
