<svg width="20" height="20" viewBox="0 0 20 20" fill="none" xmlns="http://www.w3.org/2000/svg">
<path fill-rule="evenodd" clip-rule="evenodd" d="M5.06662 0H14.9335C17.7202 0 20 2.2797 20 5.06652V14.9335C20 17.7202 17.7202 20 14.9335 20H5.06662C2.27982 20 0 17.7202 0 14.9335V5.06652C0 2.2797 2.27982 0 5.06662 0ZM2.50929 6.33959V6.53634L2.88574 7.37609C3.31221 8.33456 4.03298 9.64894 4.60928 10.5359C4.93906 11.0433 5.7966 12.2155 6.1988 12.6075C6.98354 13.3726 8.24341 14.1587 9.44928 14.2261C9.82933 14.2475 10.2847 14.2355 10.6701 14.23C11.6028 14.2164 11.0471 13.3639 11.4792 12.6067C12.1511 11.4292 13.0284 13.6986 14.1783 14.1526C14.5813 14.3118 14.8306 14.2601 15.2889 14.2545C15.6903 14.2494 16.0847 14.2397 16.4855 14.2345C16.8641 14.2296 17.2905 14.2363 17.4371 13.9721C17.8063 13.3065 15.87 11.6662 15.4076 11.1765C14.8299 10.5644 14.9768 10.3908 15.5649 9.60763C16.1422 8.83893 17.1245 7.66405 17.438 6.7469L17.4907 6.62046V6.40753C17.3964 6.23082 17.3956 6.19834 17.1606 6.14135C16.9677 6.09455 14.3521 6.12268 14.2368 6.15105C13.9706 6.21663 13.881 6.59022 13.7706 6.85765C13.3964 7.76448 12.5556 9.25222 11.9481 9.74962C11.6117 10.0249 11.3921 9.86237 11.2976 9.47174C11.218 9.14221 11.2508 8.72196 11.2604 8.37563C11.2714 7.97815 11.2739 7.5981 11.2902 7.20273C11.3057 6.82679 11.327 6.45159 11.1915 6.13114C10.9942 5.6646 9.79821 5.73553 9.25813 5.73914C8.81834 5.74213 7.56059 5.74026 7.48145 6.32776C7.77252 6.40243 7.91675 6.41164 8.11088 6.60229C8.50313 6.98732 8.43282 8.4595 8.37421 8.97184C8.32082 9.43776 8.22923 10.2117 7.62767 9.81396C7.0042 9.40167 6.26451 7.75452 5.89367 7.00014C5.80581 6.82181 5.71509 6.53198 5.60981 6.37518C5.35059 5.98878 4.64475 6.11546 4.08923 6.1177C3.78596 6.11907 3.48269 6.12143 3.17942 6.1228C2.75432 6.12479 2.7216 6.11696 2.50929 6.33959Z" fill="#A3A3A3"/>
</svg>
