<svg width="495" height="507" viewBox="0 0 495 507" fill="none" xmlns="http://www.w3.org/2000/svg">
<rect x="247.5" width="350.018" height="350.018" transform="rotate(45 247.5 0)" fill="#272727"/>
<rect x="168.75" y="78.7499" width="238.649" height="238.649" transform="rotate(45 168.75 78.7499)" fill="#F4E861"/>
<path d="M285.627 358.875H199.213C199.213 339.974 200.594 323.516 203.358 309.5C206.334 295.272 211.223 282.53 218.026 271.274C224.829 259.806 233.97 248.87 245.449 238.464C255.44 229.757 264.156 221.581 271.597 213.935C279.037 206.078 284.777 198.008 288.816 189.726C292.855 181.444 294.874 172.418 294.874 162.649C294.874 150.969 293.067 141.413 289.453 133.98C286.052 126.335 280.95 120.601 274.148 116.778C267.557 112.743 259.267 110.726 249.275 110.726C240.985 110.726 233.226 112.637 225.998 116.46C218.77 120.07 212.924 125.804 208.46 133.661C203.996 141.519 201.551 151.819 201.126 164.56H101C101.638 134.192 108.547 109.345 121.727 90.0202C134.907 70.4825 152.551 56.1479 174.659 47.0161C196.98 37.672 221.853 33 249.275 33C279.675 33 305.716 37.7782 327.399 47.3347C349.295 56.8911 365.983 71.0134 377.462 89.7016C389.154 108.39 395 131.219 395 158.19C395 176.665 391.492 192.911 384.477 206.927C377.462 220.731 368.108 233.685 356.416 245.79C344.725 257.683 331.757 270.106 317.514 283.06C305.397 293.891 297.106 305.147 292.642 316.827C288.178 328.294 285.839 342.31 285.627 358.875ZM187.733 456.351C187.733 442.122 192.835 430.124 203.039 420.355C213.456 410.586 226.954 405.702 243.536 405.702C260.117 405.702 273.51 410.586 283.714 420.355C293.918 430.124 299.02 442.122 299.02 456.351C299.02 470.792 293.918 482.897 283.714 492.665C273.51 502.222 260.117 507 243.536 507C226.954 507 213.456 502.222 203.039 492.665C192.835 482.897 187.733 470.792 187.733 456.351Z" fill="white"/>
</svg>
