<svg width="41" height="41" viewBox="0 0 41 41" fill="none" xmlns="http://www.w3.org/2000/svg">
<path d="M34.3773 5.87279C30.5888 2.09742 25.5374 0 20.2054 0C9.12051 0 0.140313 8.94902 0.140313 19.9955C0.140313 23.4912 1.12252 26.9869 2.80631 29.9233L0 40.2706L10.664 37.474C13.6106 39.0121 16.8379 39.8511 20.2054 39.8511C31.2904 39.8511 40.2706 30.9021 40.2706 19.8556C40.1303 14.682 38.1658 9.64816 34.3773 5.87279ZM29.8872 27.1267C29.4663 28.2453 27.5019 29.364 26.5197 29.5038C25.6778 29.6436 24.5552 29.6436 23.4327 29.364C22.7311 29.0843 21.7489 28.8047 20.6264 28.2453C15.575 26.1479 12.3478 21.1141 12.0671 20.6946C11.7865 20.4149 9.96241 18.0379 9.96241 15.521C9.96241 13.004 11.2252 11.8854 11.6462 11.3261C12.0671 10.7668 12.6284 10.7668 13.0494 10.7668C13.33 10.7668 13.7509 10.7668 14.0316 10.7668C14.3122 10.7668 14.7331 10.627 15.1541 11.6058C15.575 12.5846 16.5572 15.1015 16.6976 15.2413C16.8379 15.521 16.8379 15.8006 16.6976 16.0803C16.5572 16.3599 16.4169 16.6396 16.1363 16.9192C15.8557 17.1989 15.575 17.6184 15.4347 17.7582C15.1541 18.0379 14.8735 18.3175 15.1541 18.737C15.4347 19.2963 16.4169 20.8344 17.9604 22.2327C19.9248 23.9107 21.4683 24.47 22.0296 24.7496C22.5908 25.0293 22.8714 24.8895 23.1521 24.6098C23.4327 24.3301 24.4149 23.2115 24.6956 22.6522C24.9762 22.0929 25.3971 22.2327 25.8181 22.3725C26.239 22.5124 28.7647 23.7708 29.1856 24.0505C29.7469 24.3301 30.0275 24.47 30.1679 24.6098C30.3082 25.0293 30.3082 26.0081 29.8872 27.1267Z" fill="#48C95F"/>
</svg>
