<svg width="20" height="21" viewBox="0 0 20 21" fill="none" xmlns="http://www.w3.org/2000/svg">
<path fill-rule="evenodd" clip-rule="evenodd" d="M6.62179 0.810911C4.99391 0.853845 3.75751 1.04525 2.57836 1.77153C1.65003 2.34349 0.808333 3.2903 0.412504 4.5944C-0.0291318 6.04957 0.0293712 7.60642 0.0189154 9.2016C0.00833503 10.8351 -0.025895 12.5646 0.0364667 14.1903C0.0992019 15.8238 0.264132 17.0225 0.999029 18.2094C2.63811 20.8575 5.52654 20.7633 8.41174 20.7674C9.88066 20.7694 12.0285 20.812 13.4179 20.7549C14.9947 20.6901 16.2749 20.5214 17.4261 19.7843C20.1186 18.0605 19.9951 15.3765 19.9997 12.3682C20.0023 10.7107 19.9881 9.0621 19.9633 7.40805C19.9382 5.72762 19.7662 4.60422 19.0155 3.36459C17.3974 0.692432 14.4449 0.784773 11.607 0.789005C9.9485 0.791493 8.27643 0.767354 6.62179 0.810911ZM9.65088 7.42759C11.6023 7.22872 13.1444 8.70916 13.3127 10.4374C13.415 11.4883 13.0058 12.443 12.488 12.969C12.2157 13.2457 11.9543 13.5075 11.5547 13.717C9.39396 14.8495 6.76681 13.3703 6.60424 11.0779C6.46259 9.08138 7.86181 7.60978 9.65088 7.42759ZM15.0683 4.23822C14.5243 4.3893 13.9626 4.98715 14.1625 5.69452C14.3081 6.20986 14.917 6.76764 15.6023 6.58445C16.1249 6.44457 16.695 5.84236 16.5088 5.13736C16.3719 4.61928 15.7667 4.04421 15.0683 4.23822ZM9.64578 5.65805C8.23311 5.75276 7.25574 6.23189 6.32293 7.14185C6.24289 7.21988 6.22497 7.23806 6.16174 7.31621C5.73018 7.84785 5.45123 8.19183 5.17502 8.88252C4.3744 10.885 4.98395 13.2701 6.4896 14.5703C6.92153 14.9432 7.39304 15.3033 8.04976 15.5614C9.37529 16.0821 11.0441 16.0281 12.312 15.3716C15.5272 13.707 16.0479 9.3202 13.4293 6.95954C12.5407 6.15846 11.3497 5.54393 9.64578 5.65805Z" fill="#565656"/>
</svg>
