<svg width="20" height="21" viewBox="0 0 20 21" fill="none" xmlns="http://www.w3.org/2000/svg">
<path fill-rule="evenodd" clip-rule="evenodd" d="M5.06662 0.784546H14.9335C17.7202 0.784546 20 3.06425 20 5.85106V15.718C20 18.5047 17.7202 20.7845 14.9335 20.7845H5.06662C2.27982 20.7845 0 18.5047 0 15.718V5.85106C0 3.06425 2.27982 0.784546 5.06662 0.784546ZM2.50929 7.12413V7.32088L2.88574 8.16063C3.31221 9.11911 4.03298 10.4335 4.60928 11.3204C4.93906 11.8279 5.7966 13 6.1988 13.392C6.98354 14.1571 8.24341 14.9432 9.44928 15.0107C9.82933 15.0321 10.2847 15.02 10.6701 15.0146C11.6028 15.001 11.0471 14.1484 11.4792 13.3913C12.1511 12.2138 13.0284 14.4832 14.1783 14.9371C14.5813 15.0963 14.8306 15.0447 15.2889 15.0391C15.6903 15.034 16.0847 15.0243 16.4855 15.019C16.8641 15.0142 17.2905 15.0209 17.4371 14.7567C17.8063 14.091 15.87 12.4507 15.4076 11.9611C14.8299 11.3489 14.9768 11.1753 15.5649 10.3922C16.1422 9.62348 17.1245 8.4486 17.438 7.53144L17.4907 7.405V7.19208C17.3964 7.01537 17.3956 6.98289 17.1606 6.92589C16.9677 6.8791 14.3521 6.90722 14.2368 6.9356C13.9706 7.00118 13.881 7.37476 13.7706 7.6422C13.3964 8.54902 12.5556 10.0368 11.9481 10.5342C11.6117 10.8094 11.3921 10.6469 11.2976 10.2563C11.218 9.92675 11.2508 9.5065 11.2604 9.16017C11.2714 8.7627 11.2739 8.38264 11.2902 7.98728C11.3057 7.61133 11.327 7.23613 11.1915 6.91569C10.9942 6.44915 9.79821 6.52008 9.25813 6.52369C8.81834 6.52668 7.56059 6.52481 7.48145 7.11231C7.77252 7.18698 7.91675 7.19619 8.11088 7.38684C8.50313 7.77187 8.43282 9.24405 8.37421 9.75639C8.32082 10.2223 8.22923 10.9962 7.62767 10.5985C7.0042 10.1862 6.26451 8.53906 5.89367 7.78468C5.80581 7.60635 5.71509 7.31652 5.60981 7.15972C5.35059 6.77332 4.64475 6.90001 4.08923 6.90225C3.78596 6.90362 3.48269 6.90598 3.17942 6.90735C2.75432 6.90934 2.7216 6.9015 2.50929 7.12413Z" fill="#565656"/>
</svg>
