<svg width="26" height="18" viewBox="0 0 26 18" fill="none" xmlns="http://www.w3.org/2000/svg">
<path d="M25.4567 2.81076C25.1577 1.70434 24.2766 0.833081 23.1579 0.537387C21.1305 0 13 0 13 0C13 0 4.86953 0 2.84198 0.537387C1.72324 0.833081 0.842193 1.70434 0.543193 2.81076C0 4.81602 0 9 0 9C0 9 0 13.1838 0.543193 15.1892C0.842193 16.2957 1.72324 17.1669 2.84198 17.4628C4.86953 18 13 18 13 18C13 18 21.1305 18 23.1579 17.4628C24.2766 17.1669 25.1577 16.2957 25.4567 15.1892C26 13.1838 26 9 26 9C26 9 26 4.81602 25.4567 2.81076Z" fill="#565656"/>
<path d="M10.5625 13.3043V5.47824L17.0625 9.39143L10.5625 13.3043Z" fill="white"/>
</svg>
