<svg width="717" height="805" viewBox="0 0 717 805" fill="none" xmlns="http://www.w3.org/2000/svg">
<path d="M391.912 804.439H391.68H389.271C387.12 804.378 385.081 803.464 383.604 801.9C382.127 800.336 381.331 798.249 381.392 796.098C381.454 793.947 382.367 791.909 383.932 790.431C385.496 788.954 387.583 788.158 389.734 788.22H392.097C394.248 788.22 396.311 789.074 397.832 790.595C399.353 792.116 400.207 794.179 400.207 796.329C400.207 798.48 399.353 800.543 397.832 802.064C396.311 803.585 394.248 804.439 392.097 804.439H391.912ZM439.968 802.771C438.08 802.539 436.332 801.651 435.032 800.261C433.732 798.871 432.962 797.069 432.858 795.169C432.753 793.268 433.319 791.392 434.458 789.867C435.597 788.343 437.236 787.268 439.088 786.829L441.451 786.598C442.536 786.443 443.64 786.51 444.698 786.794C445.756 787.077 446.745 787.572 447.606 788.249C448.467 788.925 449.183 789.769 449.709 790.73C450.235 791.691 450.561 792.748 450.668 793.838C450.774 794.928 450.659 796.028 450.329 797.072C449.998 798.116 449.46 799.083 448.746 799.913C448.032 800.744 447.157 801.421 446.174 801.904C445.191 802.387 444.121 802.666 443.027 802.725L440.617 803.003L439.968 802.771ZM341.77 799.898C341.355 799.944 340.935 799.944 340.519 799.898L338.063 799.527C335.937 799.183 334.034 798.008 332.774 796.261C331.514 794.515 330.999 792.339 331.343 790.212C331.688 788.086 332.862 786.184 334.609 784.923C336.356 783.663 338.532 783.149 340.658 783.493L342.975 783.863C344.995 784.171 346.824 785.231 348.097 786.829C349.37 788.427 349.992 790.447 349.84 792.485C349.688 794.523 348.772 796.427 347.276 797.819C345.78 799.211 343.814 799.986 341.77 799.99V799.898ZM490.064 794.8C488.094 794.762 486.206 794.008 484.751 792.679C483.297 791.351 482.376 789.538 482.16 787.58C481.945 785.622 482.449 783.652 483.579 782.039C484.71 780.425 486.389 779.278 488.303 778.812L490.574 778.256C492.669 777.765 494.874 778.126 496.704 779.26C498.533 780.394 499.837 782.208 500.329 784.304C500.82 786.399 500.459 788.604 499.325 790.434C498.191 792.263 496.377 793.567 494.281 794.059L491.871 794.615C491.278 794.745 490.671 794.807 490.064 794.8ZM292.509 789.008C291.755 789.014 291.005 788.904 290.285 788.683L287.875 787.988C286.81 787.724 285.809 787.247 284.934 786.585C284.058 785.924 283.326 785.091 282.782 784.138C282.238 783.186 281.892 782.132 281.767 781.042C281.642 779.952 281.739 778.848 282.053 777.796C282.367 776.745 282.891 775.768 283.593 774.925C284.296 774.082 285.162 773.39 286.139 772.891C287.117 772.393 288.185 772.098 289.28 772.024C290.375 771.951 291.474 772.1 292.509 772.463L294.733 773.112C296.608 773.659 298.221 774.863 299.279 776.504C300.337 778.145 300.767 780.112 300.491 782.045C300.215 783.977 299.251 785.745 297.776 787.024C296.301 788.303 294.415 789.008 292.463 789.008H292.509ZM538.537 780.481C536.64 780.469 534.807 779.793 533.357 778.569C531.907 777.346 530.931 775.653 530.601 773.784C530.27 771.916 530.605 769.991 531.547 768.344C532.489 766.697 533.979 765.433 535.757 764.771L537.935 763.937C538.94 763.509 540.021 763.289 541.113 763.289C542.205 763.289 543.286 763.51 544.291 763.939C545.296 764.367 546.204 764.994 546.96 765.782C547.717 766.569 548.306 767.502 548.694 768.523C549.081 769.544 549.258 770.634 549.214 771.725C549.17 772.816 548.906 773.887 548.438 774.874C547.97 775.861 547.307 776.743 546.49 777.468C545.672 778.192 544.717 778.744 543.681 779.09L541.364 779.971C540.391 780.349 539.349 780.523 538.306 780.481H538.537ZM245.009 771.815C243.891 771.808 242.787 771.571 241.765 771.12L239.54 770.146C237.574 769.274 236.035 767.656 235.261 765.648C234.488 763.641 234.543 761.408 235.416 759.441C236.289 757.475 237.907 755.936 239.914 755.162C241.922 754.389 244.154 754.444 246.121 755.317L248.253 756.29C249.949 757.042 251.337 758.353 252.184 760.004C253.031 761.655 253.286 763.547 252.906 765.364C252.527 767.18 251.536 768.812 250.098 769.986C248.661 771.16 246.865 771.805 245.009 771.815ZM584.786 760.044C582.974 760.041 581.214 759.432 579.789 758.312C578.363 757.193 577.354 755.628 576.922 753.867C576.489 752.107 576.66 750.252 577.405 748.6C578.15 746.948 579.427 745.593 581.033 744.751L583.118 743.639C584.061 743.099 585.103 742.755 586.182 742.626C587.261 742.497 588.355 742.586 589.399 742.888C590.443 743.19 591.415 743.698 592.259 744.384C593.102 745.069 593.799 745.917 594.308 746.876C594.818 747.836 595.129 748.888 595.224 749.971C595.319 751.053 595.195 752.144 594.86 753.178C594.525 754.211 593.986 755.167 593.275 755.989C592.563 756.81 591.694 757.48 590.718 757.958L588.54 759.117C587.307 759.747 585.939 760.065 584.555 760.044H584.786ZM200.15 748.69C198.679 748.696 197.236 748.295 195.979 747.532L193.894 746.28C192.05 745.168 190.724 743.369 190.207 741.279C189.69 739.189 190.024 736.979 191.136 735.135C192.249 733.292 194.048 731.965 196.138 731.448C198.228 730.931 200.438 731.266 202.282 732.378L204.321 733.583C205.84 734.496 207.018 735.881 207.676 737.528C208.333 739.174 208.432 740.99 207.959 742.698C207.486 744.407 206.466 745.913 205.056 746.987C203.646 748.06 201.923 748.642 200.15 748.644V748.69ZM627.977 733.814C626.258 733.806 624.586 733.251 623.203 732.231C621.82 731.211 620.797 729.777 620.281 728.138C619.765 726.498 619.784 724.737 620.334 723.108C620.885 721.48 621.938 720.069 623.343 719.078L625.289 717.688C626.153 716.98 627.154 716.459 628.229 716.156C629.304 715.853 630.43 715.776 631.536 715.928C632.643 716.081 633.705 716.461 634.658 717.043C635.611 717.626 636.433 718.399 637.073 719.315C637.713 720.23 638.157 721.267 638.378 722.362C638.598 723.457 638.59 724.586 638.354 725.677C638.117 726.769 637.658 727.8 637.005 728.706C636.352 729.611 635.518 730.372 634.557 730.941L632.565 732.378C631.152 733.358 629.464 733.862 627.745 733.814H627.977ZM158.581 719.912C156.76 719.921 154.991 719.299 153.577 718.151L151.63 716.668C149.946 715.322 148.866 713.363 148.627 711.22C148.388 709.078 149.01 706.929 150.356 705.245C151.702 703.561 153.661 702.481 155.803 702.242C157.946 702.003 160.095 702.625 161.779 703.97L163.633 705.453C164.467 706.116 165.162 706.937 165.679 707.869C166.195 708.801 166.523 709.826 166.644 710.884C166.764 711.943 166.675 713.015 166.381 714.039C166.087 715.064 165.594 716.02 164.93 716.853C164.166 717.867 163.169 718.683 162.024 719.231C160.879 719.78 159.619 720.045 158.35 720.005L158.581 719.912ZM667.506 702.209C665.913 702.169 664.367 701.66 663.061 700.746C661.755 699.832 660.748 698.554 660.164 697.071C659.581 695.587 659.447 693.965 659.781 692.406C660.114 690.848 660.899 689.422 662.038 688.307L663.753 686.731C664.521 685.904 665.454 685.246 666.491 684.8C667.528 684.354 668.647 684.129 669.776 684.14C670.905 684.151 672.019 684.398 673.047 684.865C674.075 685.332 674.995 686.008 675.747 686.85C676.498 687.693 677.066 688.683 677.413 689.757C677.76 690.832 677.879 691.967 677.762 693.09C677.645 694.213 677.294 695.299 676.734 696.279C676.173 697.259 675.413 698.111 674.504 698.78L672.697 700.448C671.175 701.705 669.247 702.365 667.275 702.302L667.506 702.209ZM120.767 686.268C119.69 686.268 118.623 686.056 117.629 685.642C116.635 685.229 115.733 684.622 114.974 683.858L113.259 682.097C112.517 681.33 111.933 680.425 111.54 679.432C111.148 678.44 110.954 677.379 110.972 676.312C110.989 675.245 111.216 674.192 111.64 673.212C112.065 672.233 112.678 671.347 113.445 670.604C114.211 669.862 115.117 669.278 116.109 668.885C117.102 668.493 118.162 668.299 119.229 668.317C120.296 668.334 121.35 668.561 122.329 668.986C123.309 669.41 124.195 670.023 124.937 670.79L126.559 672.504C127.314 673.254 127.914 674.145 128.323 675.128C128.732 676.11 128.943 677.164 128.943 678.228C128.943 679.292 128.732 680.345 128.323 681.327C127.914 682.31 127.314 683.201 126.559 683.951C125.006 685.452 122.926 686.284 120.767 686.268ZM702.402 666.063C700.858 666.057 699.348 665.611 698.048 664.777C696.749 663.943 695.715 662.755 695.068 661.353C694.421 659.951 694.187 658.394 694.394 656.864C694.602 655.334 695.241 653.895 696.238 652.716L697.768 650.909C699.165 649.312 701.133 648.326 703.249 648.163C705.365 648.001 707.46 648.674 709.085 650.038C710.711 651.403 711.737 653.35 711.943 655.462C712.148 657.574 711.518 659.683 710.187 661.336L708.612 663.19C707.848 664.092 706.897 664.817 705.825 665.313C704.752 665.809 703.584 666.065 702.402 666.063ZM87.7713 648.036C86.5182 648.04 85.2818 647.748 84.1626 647.184C83.0434 646.621 82.0728 645.801 81.3297 644.792L79.8469 642.846C79.1353 642 78.6039 641.019 78.2854 639.961C77.9669 638.903 77.8679 637.79 77.9946 636.693C78.1213 635.595 78.471 634.535 79.0222 633.577C79.5734 632.62 80.3144 631.785 81.1999 631.124C82.0853 630.463 83.0966 629.99 84.1715 629.734C85.2463 629.478 86.3622 629.444 87.4505 629.635C88.5389 629.825 89.5768 630.236 90.5006 630.843C91.4244 631.449 92.2145 632.238 92.8225 633.16L94.2591 635.014C95.1581 636.223 95.7046 637.658 95.8378 639.159C95.971 640.66 95.6858 642.168 95.0139 643.517C94.3419 644.866 93.3094 646.002 92.0309 646.8C90.7525 647.597 89.2781 648.025 87.7713 648.036ZM732.663 625.653C731.019 625.674 729.406 625.206 728.029 624.309C726.237 623.127 724.987 621.283 724.553 619.18C724.118 617.078 724.535 614.89 725.712 613.094L726.963 611.148C727.538 610.25 728.284 609.475 729.159 608.865C730.034 608.256 731.02 607.825 732.062 607.597C733.103 607.369 734.179 607.348 735.228 607.536C736.278 607.724 737.28 608.117 738.178 608.692C739.075 609.267 739.851 610.013 740.46 610.888C741.069 611.763 741.5 612.749 741.728 613.791C741.956 614.832 741.977 615.908 741.789 616.957C741.601 618.007 741.209 619.009 740.634 619.907L739.243 621.992C738.527 623.091 737.554 624 736.407 624.638C735.26 625.276 733.975 625.624 732.663 625.653ZM59.9198 606.097C58.4905 606.098 57.0862 605.721 55.8492 605.005C54.6122 604.289 53.5865 603.259 52.8759 602.019L51.671 599.887C51.1476 598.959 50.8122 597.937 50.6839 596.879C50.5555 595.821 50.6367 594.749 50.9229 593.722C51.209 592.696 51.6945 591.736 52.3517 590.897C53.0088 590.059 53.8247 589.358 54.7528 588.834C55.6808 588.311 56.7029 587.976 57.7606 587.847C58.8183 587.719 59.891 587.8 60.9173 588.086C61.9436 588.372 62.9035 588.858 63.7422 589.515C64.5809 590.172 65.282 590.988 65.8053 591.916L66.9639 593.955C67.4942 594.88 67.8369 595.9 67.9725 596.958C68.1081 598.015 68.0339 599.089 67.7541 600.118C67.4744 601.146 66.9945 602.11 66.342 602.953C65.6896 603.796 64.8772 604.502 63.9515 605.031C62.726 605.737 61.3345 606.105 59.9198 606.097ZM757.502 581.906C756.127 581.914 754.773 581.57 753.569 580.907C752.365 580.244 751.35 579.284 750.621 578.119C749.892 576.953 749.473 575.621 749.404 574.248C749.335 572.875 749.618 571.507 750.227 570.274L751.246 568.143C752.174 566.201 753.835 564.707 755.865 563.99C757.894 563.273 760.125 563.392 762.067 564.32C764.009 565.247 765.502 566.909 766.219 568.938C766.936 570.967 766.818 573.198 765.89 575.14L764.824 577.318C764.132 578.656 763.079 579.773 761.785 580.543C760.491 581.312 759.008 581.705 757.502 581.675V581.906ZM37.6759 560.728C36.0642 560.727 34.4893 560.246 33.1521 559.347C31.815 558.447 30.7763 557.169 30.1685 555.677L29.2416 553.406C28.4366 551.409 28.4579 549.174 29.3009 547.192C30.1439 545.211 31.7396 543.645 33.7368 542.84C35.734 542.035 37.9692 542.056 39.9507 542.899C41.9322 543.742 43.4977 545.338 44.3027 547.335L45.1832 549.513C45.9979 551.505 45.9923 553.738 45.1676 555.726C44.343 557.714 42.7661 559.295 40.7807 560.126C39.7742 560.424 38.7243 560.55 37.6759 560.496V560.728ZM776.549 535.147C775.667 535.145 774.791 535.004 773.953 534.73C771.919 534.034 770.242 532.562 769.288 530.635C768.333 528.709 768.178 526.483 768.856 524.443L769.597 522.218C769.881 521.152 770.38 520.154 771.063 519.287C771.747 518.42 772.599 517.702 773.57 517.176C774.54 516.65 775.608 516.328 776.707 516.229C777.807 516.13 778.915 516.257 779.963 516.601C781.012 516.945 781.979 517.5 782.806 518.231C783.633 518.963 784.302 519.855 784.772 520.854C785.242 521.852 785.503 522.937 785.539 524.04C785.575 525.143 785.386 526.242 784.983 527.269L784.241 529.586C783.655 531.153 782.604 532.503 781.23 533.456C779.855 534.408 778.221 534.918 776.549 534.916V535.147ZM21.4562 512.811C19.6816 512.81 17.9567 512.224 16.5491 511.143C15.1415 510.062 14.1298 508.547 13.6709 506.833L13.022 504.469C12.6865 503.421 12.5678 502.315 12.6733 501.22C12.7788 500.124 13.1062 499.061 13.6357 498.096C14.1651 497.131 14.8854 496.284 15.7528 495.606C16.6201 494.929 17.6164 494.435 18.6808 494.154C19.7452 493.874 20.8555 493.814 21.9442 493.976C23.0328 494.139 24.0769 494.521 25.0129 495.101C25.9489 495.68 26.7573 496.443 27.3887 497.345C28.0201 498.247 28.4613 499.267 28.6855 500.345L29.3343 502.616C29.8732 504.692 29.5723 506.897 28.4967 508.754C27.4212 510.61 25.6575 511.968 23.5879 512.533C22.8843 512.661 22.1648 512.676 21.4562 512.579V512.811ZM789.385 486.257C788.861 486.302 788.334 486.302 787.81 486.257C786.764 486.057 785.768 485.652 784.879 485.066C783.991 484.479 783.227 483.723 782.633 482.839C782.038 481.956 781.624 480.964 781.415 479.92C781.206 478.876 781.206 477.801 781.414 476.757L781.831 474.44C782.004 473.373 782.388 472.351 782.962 471.434C783.535 470.518 784.286 469.725 785.17 469.103C786.054 468.481 787.054 468.042 788.11 467.811C789.166 467.581 790.258 467.564 791.321 467.762C792.383 467.96 793.396 468.368 794.299 468.963C795.202 469.557 795.976 470.327 796.577 471.225C797.179 472.124 797.594 473.133 797.799 474.195C798.005 475.256 797.996 476.348 797.773 477.406L797.31 479.862C796.88 481.634 795.863 483.208 794.424 484.327C792.984 485.447 791.208 486.045 789.385 486.025V486.257ZM11.5854 463.318C9.6178 463.314 7.71794 462.599 6.23608 461.304C4.75423 460.01 3.79033 458.223 3.52202 456.274L3.24398 453.818C3.10762 452.765 3.18058 451.695 3.4588 450.67C3.73702 449.645 4.21492 448.685 4.86512 447.845C5.51532 447.006 6.32506 446.303 7.24768 445.777C8.17031 445.251 9.18769 444.913 10.2415 444.781C11.3105 444.624 12.4001 444.682 13.4469 444.95C14.4936 445.217 15.4767 445.691 16.339 446.342C17.2013 446.993 17.9257 447.809 18.4701 448.742C19.0144 449.675 19.3678 450.708 19.5098 451.779L19.7879 454.142C19.9579 455.209 19.9118 456.3 19.652 457.349C19.3922 458.398 18.9241 459.384 18.2756 460.249C17.6272 461.113 16.8116 461.839 15.8772 462.382C14.9429 462.925 13.9088 463.275 12.8366 463.41L11.5854 463.318ZM795.919 435.93H795.363C793.219 435.787 791.219 434.799 789.803 433.183C788.387 431.567 787.67 429.455 787.81 427.31V424.947C788.03 422.872 789.042 420.962 790.635 419.614C792.227 418.267 794.278 417.584 796.361 417.71C798.444 417.835 800.398 418.758 801.817 420.287C803.237 421.816 804.012 423.834 803.983 425.92V428.376C803.842 430.421 802.932 432.337 801.436 433.739C799.94 435.14 797.969 435.923 795.919 435.93ZM8.1098 412.759C5.97066 412.747 3.92187 411.895 2.40491 410.387C0.887955 408.878 0.0242751 406.835 0 404.695V401.405C0 399.254 0.85447 397.192 2.37535 395.671C3.89624 394.15 5.95895 393.295 8.1098 393.295C10.2607 393.295 12.3234 394.15 13.8443 395.671C15.3651 397.192 16.2196 399.254 16.2196 401.405V404.556C16.2318 405.621 16.0342 406.678 15.6379 407.667C15.2416 408.656 14.6545 409.557 13.91 410.318C13.1655 411.08 12.2784 411.688 11.2991 412.106C10.3198 412.525 9.26745 412.747 8.20244 412.759H8.1098ZM795.919 385.464C793.861 385.469 791.879 384.691 790.373 383.288C788.867 381.886 787.951 379.963 787.81 377.91V375.547C787.701 374.465 787.81 373.373 788.132 372.335C788.453 371.297 788.98 370.335 789.68 369.504C790.381 368.674 791.242 367.992 792.211 367.501C793.18 367.01 794.238 366.718 795.322 366.643C796.406 366.569 797.494 366.713 798.522 367.067C799.549 367.421 800.495 367.978 801.302 368.705C802.11 369.432 802.764 370.313 803.224 371.297C803.685 372.282 803.943 373.348 803.983 374.434V376.844C804.123 378.988 803.406 381.101 801.989 382.717C800.573 384.333 798.573 385.321 796.429 385.464H795.919ZM11.122 361.505H10.1489C9.0893 361.379 8.06501 361.045 7.13483 360.522C6.20464 359.999 5.38689 359.298 4.72822 358.458C4.06955 357.619 3.58295 356.658 3.29645 355.63C3.00994 354.602 2.92913 353.528 3.05857 352.468L3.383 350.012C3.7041 347.918 4.83167 346.033 6.52459 344.76C8.2175 343.487 10.3414 342.927 12.442 343.199C14.5427 343.472 16.4534 344.555 17.7655 346.218C19.0777 347.881 19.6872 349.991 19.4636 352.098L19.1392 354.415C18.8897 356.372 17.9312 358.17 16.4452 359.468C14.9592 360.766 13.0489 361.474 11.0757 361.459L11.122 361.505ZM789.663 335.368C787.774 335.379 785.942 334.726 784.485 333.523C783.028 332.32 782.04 330.645 781.692 328.788L781.229 326.517C780.869 324.435 781.335 322.295 782.529 320.552C783.722 318.808 785.549 317.6 787.621 317.183C789.692 316.766 791.844 317.175 793.619 318.321C795.394 319.467 796.652 321.26 797.124 323.319L797.634 325.729C797.962 327.807 797.476 329.93 796.275 331.658C795.075 333.385 793.254 334.581 791.193 334.997L789.663 335.368ZM20.4831 311.827C19.796 311.844 19.1098 311.766 18.4441 311.595C16.3609 311.06 14.5753 309.72 13.4802 307.869C12.3852 306.018 12.0704 303.807 12.605 301.724L13.2074 299.361C13.7544 297.277 15.1064 295.497 16.9662 294.41C18.826 293.324 21.0412 293.021 23.1245 293.568C25.2077 294.115 26.9884 295.467 28.0747 297.327C29.1611 299.187 29.4641 301.402 28.9172 303.485L28.3147 305.756C27.8569 307.487 26.842 309.02 25.4266 310.117C24.0111 311.214 22.274 311.815 20.4831 311.827ZM776.78 286.339C775.078 286.33 773.421 285.79 772.042 284.793C770.662 283.795 769.629 282.391 769.087 280.778L768.346 278.507C767.933 277.483 767.734 276.386 767.76 275.282C767.787 274.179 768.038 273.092 768.499 272.09C768.96 271.087 769.62 270.188 770.441 269.45C771.261 268.711 772.223 268.147 773.269 267.794C774.314 267.44 775.421 267.303 776.521 267.392C777.621 267.481 778.692 267.794 779.667 268.311C780.642 268.828 781.502 269.538 782.193 270.399C782.883 271.26 783.391 272.253 783.685 273.317L784.473 275.68C784.876 276.898 784.985 278.194 784.789 279.463C784.594 280.731 784.101 281.935 783.35 282.975C782.599 284.015 781.612 284.863 780.47 285.448C779.328 286.032 778.063 286.338 776.78 286.339ZM36.1465 263.724C35.1177 263.715 34.0984 263.527 33.1343 263.168C32.1361 262.779 31.2244 262.196 30.4512 261.455C29.678 260.713 29.0585 259.826 28.6281 258.845C28.1978 257.864 27.965 256.807 27.9431 255.736C27.9211 254.665 28.1104 253.6 28.5001 252.602L29.427 250.331C29.8073 249.316 30.3875 248.387 31.1332 247.599C31.8788 246.812 32.7749 246.182 33.7683 245.747C34.7617 245.312 35.8323 245.08 36.9167 245.066C38.0011 245.052 39.0773 245.256 40.0816 245.665C41.086 246.074 41.998 246.68 42.7639 247.448C43.5297 248.216 44.1338 249.13 44.5403 250.135C44.9468 251.141 45.1475 252.217 45.1306 253.302C45.1137 254.386 44.8794 255.456 44.4417 256.448L43.5612 258.673C42.9738 260.168 41.9555 261.455 40.6354 262.371C39.3153 263.287 37.7529 263.79 36.1465 263.817V263.724ZM757.873 239.441C756.337 239.451 754.83 239.02 753.532 238.198C752.234 237.377 751.199 236.199 750.551 234.807L749.485 232.675C749.019 231.716 748.747 230.676 748.684 229.612C748.62 228.548 748.767 227.483 749.116 226.476C749.464 225.469 750.008 224.54 750.715 223.743C751.423 222.946 752.28 222.297 753.239 221.831C754.197 221.365 755.238 221.093 756.302 221.03C757.365 220.967 758.431 221.113 759.438 221.462C760.445 221.811 761.373 222.354 762.17 223.061C762.967 223.769 763.617 224.626 764.083 225.585L765.148 227.763C765.613 228.724 765.883 229.767 765.944 230.833C766.004 231.899 765.853 232.966 765.5 233.974C765.147 234.981 764.599 235.909 763.886 236.704C763.174 237.499 762.311 238.146 761.348 238.607C760.278 239.183 759.088 239.5 757.873 239.533V239.441ZM58.1126 218.17C56.734 218.172 55.3778 217.821 54.1735 217.15C52.2976 216.089 50.9179 214.328 50.3361 212.253C49.7543 210.178 50.0176 207.957 51.0685 206.075L52.2735 203.989C53.4828 202.48 55.1916 201.453 57.0918 201.092C58.9919 200.732 60.9582 201.063 62.636 202.025C64.3138 202.987 65.5927 204.517 66.2418 206.338C66.8909 208.16 66.8676 210.154 66.176 211.96L65.0175 214.046C64.3172 215.325 63.2846 216.393 62.0286 217.135C60.7726 217.877 59.3397 218.267 57.8808 218.263L58.1126 218.17ZM733.312 195.416C731.961 195.421 730.631 195.089 729.441 194.45C728.251 193.811 727.24 192.884 726.499 191.755L725.202 189.763C724.016 187.968 723.591 185.776 724.021 183.668C724.452 181.561 725.701 179.711 727.496 178.525C729.29 177.339 731.482 176.914 733.59 177.344C735.697 177.774 737.548 179.024 738.734 180.819L740.078 182.858C740.879 184.08 741.336 185.496 741.399 186.956C741.462 188.416 741.13 189.866 740.437 191.153C739.743 192.44 738.715 193.515 737.461 194.265C736.207 195.016 734.773 195.414 733.312 195.416ZM85.5006 175.767C83.8288 175.741 82.2076 175.19 80.8664 174.192C79.1416 172.907 77.9936 170.994 77.6725 168.868C77.3514 166.741 77.883 164.574 79.1516 162.838L80.6346 160.892C81.2697 160.035 82.0686 159.312 82.9849 158.766C83.9012 158.22 84.9168 157.861 85.9728 157.71C87.0288 157.559 88.1043 157.619 89.1369 157.887C90.1694 158.155 91.1387 158.625 91.9884 159.27C93.6988 160.568 94.8283 162.488 95.132 164.613C95.4356 166.739 94.8889 168.898 93.6104 170.623L92.1738 172.477C91.4015 173.577 90.3633 174.465 89.1561 175.056C87.9488 175.648 86.6116 175.924 85.2688 175.86L85.5006 175.767ZM703.097 154.913C701.915 154.916 700.747 154.66 699.674 154.164C698.601 153.668 697.65 152.943 696.887 152.04L695.358 150.233C694.068 148.586 693.464 146.504 693.672 144.423C693.881 142.341 694.886 140.421 696.477 139.063C698.069 137.705 700.123 137.014 702.212 137.135C704.3 137.257 706.261 138.18 707.685 139.713L709.26 141.567C710.646 143.212 711.326 145.337 711.153 147.481C710.979 149.625 709.966 151.613 708.333 153.013C706.811 154.316 704.869 155.024 702.865 155.006L703.097 154.913ZM118.125 137.165C116.49 137.222 114.876 136.781 113.497 135.899C112.119 135.017 111.041 133.737 110.407 132.229C109.774 130.72 109.614 129.054 109.95 127.453C110.285 125.851 111.1 124.39 112.286 123.262L113.954 121.501C115.454 119.959 117.505 119.075 119.656 119.045C120.721 119.03 121.778 119.224 122.768 119.618C123.758 120.012 124.66 120.596 125.424 121.339C126.188 122.081 126.798 122.967 127.219 123.945C127.641 124.923 127.865 125.975 127.88 127.04C127.896 128.105 127.701 129.163 127.307 130.152C126.913 131.142 126.329 132.045 125.586 132.808L123.964 134.477C123.212 135.349 122.28 136.049 121.232 136.529C120.184 137.009 119.046 137.257 117.893 137.257L118.125 137.165ZM667.97 118.628C665.953 118.624 664.008 117.883 662.501 116.543L660.74 114.921C659.246 113.452 658.378 111.463 658.318 109.368C658.258 107.274 659.011 105.238 660.419 103.687C661.826 102.135 663.78 101.189 665.87 101.045C667.96 100.902 670.024 101.573 671.631 102.918L673.438 104.54C674.577 105.655 675.362 107.081 675.696 108.64C676.029 110.198 675.895 111.821 675.312 113.304C674.729 114.787 673.721 116.066 672.415 116.979C671.109 117.893 669.563 118.402 667.97 118.443V118.628ZM155.337 103.103C153.663 103.087 152.034 102.556 150.672 101.582C149.31 100.608 148.281 99.2388 147.724 97.6596C147.168 96.0805 147.11 94.3683 147.56 92.7555C148.01 91.1427 148.946 89.7075 150.24 88.6448L151.769 87.0692C152.595 86.3416 153.561 85.7898 154.607 85.4473C155.653 85.1049 156.758 84.979 157.854 85.0773C158.95 85.1756 160.015 85.496 160.984 86.0191C161.952 86.5421 162.804 87.2569 163.487 88.1198C164.171 88.9826 164.671 89.9755 164.959 91.0381C165.246 92.1007 165.314 93.2106 165.158 94.3003C165.003 95.3899 164.627 96.4366 164.054 97.3764C163.481 98.3162 162.723 99.1295 161.825 99.7669L160.018 101.25C158.636 102.409 156.908 103.077 155.106 103.15L155.337 103.103ZM628.301 87.0692C626.646 87.0774 625.028 86.5759 623.667 85.6326L621.721 84.2423C620.034 82.983 618.903 81.1173 618.567 79.0394C618.231 76.9615 618.715 74.8342 619.919 73.1073C621.122 71.3803 622.95 70.1889 625.016 69.7849C627.082 69.3809 629.224 69.7959 630.989 70.9423L632.982 72.3326C634.745 73.567 635.948 75.4482 636.33 77.5662C636.712 79.6843 636.242 81.8674 635.021 83.6399C634.254 84.7047 633.245 85.5713 632.076 86.1678C630.907 86.7642 629.613 87.0732 628.301 87.0692ZM196.396 73.9545C194.63 73.9567 192.911 73.3822 191.501 72.3182C190.091 71.2542 189.067 69.759 188.585 68.0599C188.102 66.3607 188.188 64.5505 188.828 62.9043C189.469 61.2582 190.629 59.8661 192.133 58.9397L194.265 57.6422C196.108 56.5299 198.318 56.1955 200.408 56.7126C202.498 57.2297 204.298 58.5559 205.41 60.3995C206.522 62.2431 206.856 64.453 206.339 66.5432C205.822 68.6333 204.496 70.4324 202.652 71.5447L200.66 72.7496C199.387 73.5647 197.908 73.9988 196.396 74.0008V73.9545ZM585.203 60.8398C583.882 60.8294 582.581 60.5122 581.403 59.9129L579.364 58.8471C577.447 57.87 575.996 56.1712 575.332 54.1245C574.667 52.0779 574.842 49.8509 575.819 47.9336C576.796 46.0162 578.495 44.5656 580.542 43.9008C582.589 43.236 584.815 43.4113 586.733 44.3884L588.957 45.547C590.563 46.3885 591.84 47.7436 592.585 49.396C593.33 51.0483 593.5 52.9028 593.068 54.6632C592.636 56.4236 591.627 57.9885 590.201 59.108C588.776 60.2276 587.016 60.8373 585.203 60.8398ZM241.07 50.3665C239.206 50.3785 237.395 49.7481 235.942 48.5815C234.488 47.4149 233.481 45.7831 233.089 43.961C232.697 42.1388 232.945 40.2374 233.791 38.5765C234.637 36.9157 236.029 35.5969 237.733 34.842L240.004 33.8225C241.978 32.9649 244.21 32.9221 246.215 33.7033C248.22 34.4845 249.836 36.0265 250.709 37.9933C251.139 38.9665 251.372 40.0151 251.395 41.0788C251.418 42.1424 251.23 43.2001 250.842 44.1909C250.455 45.1817 249.875 46.086 249.136 46.8516C248.397 47.6172 247.514 48.2291 246.538 48.6519L244.406 49.6251C243.365 50.128 242.226 50.3969 241.07 50.4129V50.3665ZM539.047 40.3104C538.083 40.2989 537.128 40.1266 536.22 39.8006L534.042 38.9664C532.078 38.1925 530.493 36.6832 529.624 34.7592C528.755 32.8351 528.671 30.6481 529.389 28.6628C530.107 26.6775 531.571 25.0506 533.47 24.1276C535.368 23.2046 537.552 23.0584 539.557 23.72L541.828 24.6006C543.606 25.2625 545.095 26.5269 546.038 28.1738C546.98 29.8207 547.315 31.7458 546.984 33.6141C546.653 35.4824 545.678 37.1756 544.228 38.3991C542.778 39.6226 540.944 40.2989 539.047 40.3104ZM288.431 32.664C286.498 32.6497 284.633 31.9453 283.174 30.6777C281.714 29.4101 280.755 27.6627 280.47 25.7505C280.185 23.8384 280.592 21.8873 281.618 20.2489C282.645 18.6106 284.223 17.3928 286.068 16.8151L288.477 16.0736C290.542 15.4591 292.766 15.69 294.661 16.7155C296.556 17.7411 297.965 19.4772 298.58 21.542C299.194 23.6068 298.964 25.8312 297.938 27.7257C296.913 29.6203 295.176 31.0299 293.112 31.6444L290.887 32.2932C290.1 32.578 289.268 32.7194 288.431 32.7104V32.664ZM490.62 25.8981C490.011 25.8839 489.405 25.8063 488.813 25.6664L486.542 25.1566C484.44 24.6957 482.608 23.4188 481.448 21.6068C480.287 19.7948 479.894 17.596 480.355 15.4943C480.816 13.3927 482.093 11.5602 483.905 10.4C485.717 9.23976 487.916 8.84687 490.017 9.30777L492.427 9.86384C494.39 10.2903 496.124 11.4297 497.295 13.0615C498.466 14.6933 498.989 16.7015 498.764 18.6971C498.539 20.6927 497.582 22.5339 496.077 23.8642C494.573 25.1945 492.628 25.9193 490.62 25.8981ZM337.692 21.2639C335.684 21.2282 333.76 20.448 332.293 19.0748C330.827 17.7015 329.922 15.8329 329.755 13.8309C329.588 11.8288 330.169 9.83586 331.388 8.23825C332.606 6.64063 334.373 5.55205 336.348 5.18335L338.758 4.81261C339.834 4.5793 340.946 4.56747 342.027 4.77789C343.107 4.98831 344.134 5.41653 345.044 6.03649C345.953 6.65645 346.727 7.45521 347.319 8.38398C347.91 9.31276 348.305 10.3521 348.482 11.4388C348.658 12.5255 348.612 13.6368 348.345 14.7048C348.078 15.7729 347.596 16.7754 346.929 17.6513C346.262 18.5272 345.424 19.2582 344.465 19.7996C343.507 20.341 342.448 20.6815 341.353 20.8005L338.99 21.1712C338.547 21.2515 338.096 21.2826 337.646 21.2639H337.692ZM440.849 17.8346H440.015H437.698C435.553 17.6441 433.572 16.6095 432.19 14.9582C430.808 13.307 430.139 11.1744 430.329 9.02973C430.52 6.88502 431.555 4.90381 433.206 3.52198C434.857 2.14015 436.99 1.4709 439.134 1.66141H441.637C443.695 1.88152 445.591 2.88003 446.936 4.45255C448.282 6.02506 448.975 8.05257 448.875 10.1198C448.774 12.1869 447.887 14.1374 446.395 15.5717C444.902 17.006 442.919 17.8156 440.849 17.8346ZM388.112 16.259C385.961 16.2959 383.884 15.4768 382.337 13.982C380.79 12.4872 379.9 10.4391 379.863 8.28824C379.826 6.13739 380.645 4.05994 382.14 2.51299C383.635 0.966034 385.683 0.0762889 387.834 0.039417H390.29C391.397 -0.0701573 392.516 0.0493119 393.575 0.390431C394.634 0.73155 395.612 1.28703 396.447 2.02225C397.282 2.75746 397.957 3.65671 398.43 4.66404C398.903 5.67137 399.163 6.76523 399.195 7.87755C399.227 8.98986 399.03 10.0968 398.615 11.1296C398.201 12.1623 397.579 13.0987 396.787 13.8806C395.995 14.6624 395.051 15.273 394.013 15.6742C392.975 16.0754 391.865 16.2587 390.754 16.2127H388.39L388.112 16.259Z" fill="#F6F6F6"/>
<path d="M415.223 733.908C413.072 733.951 410.992 733.138 409.441 731.647C407.889 730.157 406.994 728.111 406.951 725.96C406.908 723.809 407.721 721.73 409.211 720.178C410.702 718.627 412.747 717.731 414.898 717.688H417.262C419.413 717.596 421.512 718.362 423.098 719.818C424.684 721.273 425.627 723.3 425.719 725.451C425.811 727.601 425.045 729.701 423.589 731.287C422.134 732.873 420.108 733.816 417.957 733.908H415.547H415.223ZM365.544 732.101H364.617L362.161 731.823C360.023 731.564 358.074 730.467 356.745 728.773C355.415 727.078 354.813 724.924 355.071 722.786C355.329 720.647 356.426 718.699 358.121 717.369C359.816 716.039 361.969 715.437 364.108 715.696L366.471 715.974C368.541 716.195 370.446 717.204 371.792 718.792C373.139 720.379 373.823 722.423 373.704 724.501C373.585 726.579 372.672 728.532 371.153 729.955C369.634 731.378 367.626 732.163 365.544 732.147V732.101ZM466.94 727.698C464.951 727.663 463.045 726.899 461.583 725.55C460.121 724.201 459.206 722.362 459.012 720.383C458.817 718.403 459.357 716.421 460.528 714.814C461.699 713.206 463.421 712.085 465.365 711.664L467.635 711.2C469.686 710.882 471.781 711.363 473.489 712.543C475.196 713.723 476.386 715.513 476.814 717.544C477.241 719.575 476.874 721.693 475.787 723.461C474.7 725.229 472.977 726.513 470.972 727.049L468.562 727.559L466.94 727.698ZM314.383 721.952C313.645 721.954 312.91 721.845 312.205 721.627L309.841 720.979C308.816 720.674 307.861 720.171 307.03 719.497C306.199 718.824 305.509 717.993 304.999 717.053C304.489 716.113 304.169 715.081 304.058 714.017C303.946 712.954 304.046 711.878 304.35 710.853C304.654 709.828 305.158 708.872 305.831 708.041C306.505 707.21 307.335 706.52 308.275 706.01C309.216 705.5 310.247 705.18 311.311 705.069C312.375 704.958 313.45 705.057 314.476 705.361L316.746 706.01C318.657 706.523 320.314 707.716 321.406 709.365C322.498 711.014 322.95 713.005 322.677 714.964C322.403 716.922 321.424 718.714 319.922 720.001C318.42 721.288 316.5 721.982 314.522 721.952H314.383ZM517.036 713.147C515.13 713.157 513.282 712.496 511.816 711.28C510.349 710.064 509.357 708.37 509.014 706.496C508.672 704.622 509 702.687 509.941 701.03C510.882 699.374 512.377 698.102 514.162 697.437L516.387 696.603C518.36 695.959 520.506 696.096 522.381 696.986C524.256 697.877 525.719 699.452 526.467 701.389C527.216 703.325 527.193 705.475 526.404 707.395C525.615 709.315 524.12 710.86 522.226 711.71L519.909 712.591C519.005 713.005 518.029 713.241 517.036 713.286V713.147ZM265.539 703.878C264.355 703.883 263.185 703.63 262.11 703.137L259.885 702.071C258.859 701.655 257.928 701.034 257.151 700.245C256.374 699.456 255.767 698.516 255.367 697.483C254.967 696.45 254.782 695.347 254.825 694.24C254.868 693.133 255.137 692.047 255.616 691.049C256.095 690.05 256.773 689.16 257.609 688.433C258.445 687.707 259.42 687.159 260.476 686.824C261.532 686.489 262.645 686.374 263.747 686.486C264.848 686.597 265.916 686.934 266.883 687.473L268.968 688.447C270.625 689.236 271.966 690.563 272.77 692.213C273.575 693.863 273.797 695.736 273.399 697.528C273 699.32 272.006 700.924 270.579 702.077C269.151 703.231 267.374 703.866 265.539 703.878ZM564.211 690.903C562.432 690.898 560.704 690.309 559.293 689.225C557.882 688.142 556.866 686.624 556.403 684.906C555.939 683.189 556.053 681.366 556.727 679.72C557.401 678.074 558.598 676.695 560.133 675.795L562.219 674.59C563.133 673.907 564.18 673.424 565.294 673.173C566.407 672.922 567.561 672.909 568.68 673.134C569.799 673.36 570.857 673.819 571.786 674.482C572.715 675.144 573.494 675.996 574.072 676.98C574.649 677.965 575.013 679.06 575.138 680.194C575.263 681.329 575.147 682.477 574.798 683.564C574.449 684.65 573.875 685.651 573.113 686.5C572.35 687.35 571.417 688.029 570.375 688.493L568.289 689.744C567.057 690.485 565.649 690.885 564.211 690.903ZM220.309 678.159C218.657 678.196 217.034 677.709 215.675 676.769L213.636 675.378C211.866 674.149 210.657 672.267 210.275 670.147C209.892 668.026 210.368 665.841 211.597 664.071C212.826 662.301 214.708 661.092 216.828 660.71C218.949 660.327 221.135 660.803 222.904 662.032L224.851 663.376C226.275 664.36 227.348 665.774 227.911 667.411C228.474 669.048 228.499 670.823 227.981 672.475C227.463 674.127 226.43 675.57 225.033 676.593C223.636 677.615 221.948 678.164 220.217 678.159H220.309ZM607.124 661.29C605.444 661.299 603.803 660.785 602.428 659.821C601.052 658.857 600.01 657.489 599.446 655.907C598.881 654.325 598.821 652.606 599.275 650.989C599.729 649.372 600.674 647.935 601.98 646.878L603.787 645.441C605.45 644.223 607.514 643.684 609.56 643.933C611.606 644.182 613.481 645.201 614.802 646.783C616.124 648.364 616.794 650.39 616.676 652.447C616.559 654.505 615.662 656.441 614.168 657.861L612.221 659.483C610.765 660.658 608.949 661.296 607.077 661.29H607.124ZM179.575 645.488C177.503 645.493 175.511 644.695 174.014 643.263L172.207 641.595C170.652 640.108 169.751 638.064 169.704 635.913C169.656 633.762 170.465 631.68 171.952 630.126C173.439 628.571 175.483 627.67 177.634 627.623C179.785 627.575 181.866 628.384 183.421 629.871L185.136 631.493C186.28 632.613 187.067 634.047 187.397 635.615C187.727 637.182 187.585 638.811 186.991 640.298C186.396 641.785 185.374 643.062 184.055 643.97C182.735 644.877 181.176 645.373 179.575 645.395V645.488ZM644.522 625.19C642.537 625.212 640.617 624.484 639.146 623.151C638.344 622.449 637.688 621.594 637.219 620.636C636.749 619.679 636.474 618.638 636.409 617.573C636.344 616.508 636.491 615.442 636.842 614.434C637.192 613.427 637.739 612.499 638.451 611.705L639.98 609.99C640.656 609.119 641.502 608.396 642.467 607.863C643.432 607.33 644.495 607 645.592 606.892C646.689 606.784 647.796 606.901 648.847 607.235C649.897 607.569 650.868 608.114 651.701 608.836C652.533 609.559 653.21 610.443 653.689 611.436C654.168 612.428 654.44 613.508 654.489 614.609C654.537 615.71 654.36 616.809 653.969 617.84C653.578 618.87 652.981 619.81 652.214 620.602L650.592 622.456C649.845 623.296 648.933 623.972 647.912 624.443C646.891 624.913 645.784 625.168 644.661 625.19H644.522ZM144.726 606.653C143.476 606.666 142.241 606.383 141.121 605.827C140.002 605.272 139.03 604.459 138.284 603.456L136.755 601.51C135.465 599.789 134.91 597.626 135.215 595.497C135.519 593.368 136.656 591.446 138.377 590.156C140.098 588.865 142.261 588.311 144.39 588.615C146.519 588.92 148.44 590.057 149.731 591.778L151.121 593.631C152.052 594.825 152.628 596.256 152.783 597.762C152.939 599.267 152.667 600.786 152 602.145C151.333 603.503 150.297 604.646 149.011 605.444C147.724 606.241 146.239 606.66 144.726 606.653ZM675.849 583.483C674.32 583.5 672.82 583.065 671.539 582.231C670.638 581.665 669.858 580.926 669.245 580.057C668.631 579.188 668.195 578.206 667.963 577.168C667.73 576.13 667.705 575.056 667.889 574.008C668.074 572.961 668.463 571.96 669.036 571.063L670.288 569.07C671.425 567.227 673.247 565.91 675.355 565.411C677.462 564.911 679.682 565.269 681.526 566.406C683.369 567.543 684.686 569.365 685.185 571.473C685.685 573.58 685.327 575.8 684.19 577.643L682.893 579.729C682.172 580.912 681.157 581.888 679.947 582.562C678.737 583.236 677.373 583.585 675.988 583.575L675.849 583.483ZM116.504 562.814C115.032 562.822 113.587 562.429 112.321 561.678C111.056 560.927 110.019 559.846 109.321 558.551L108.162 556.373C107.666 555.429 107.361 554.398 107.264 553.336C107.166 552.275 107.279 551.205 107.595 550.187C107.912 549.17 108.425 548.224 109.107 547.405C109.789 546.586 110.625 545.909 111.568 545.413C112.512 544.917 113.543 544.612 114.605 544.514C115.666 544.417 116.736 544.53 117.754 544.846C118.771 545.162 119.717 545.676 120.536 546.358C121.355 547.039 122.032 547.876 122.528 548.819L123.64 550.904C124.644 552.805 124.856 555.025 124.231 557.082C123.606 559.139 122.195 560.866 120.304 561.887C119.182 562.514 117.927 562.864 116.643 562.907L116.504 562.814ZM700.132 537.419C699.047 537.431 697.972 537.21 696.98 536.77C696.002 536.356 695.115 535.752 694.37 534.993C693.625 534.235 693.038 533.337 692.642 532.351C692.246 531.364 692.048 530.31 692.061 529.247C692.074 528.184 692.297 527.134 692.717 526.158L693.598 523.98C694.427 521.995 696.011 520.421 698.002 519.604C699.992 518.787 702.225 518.794 704.21 519.624C706.195 520.453 707.769 522.037 708.586 524.028C709.403 526.018 709.396 528.251 708.566 530.236L707.593 532.507C706.99 533.962 705.977 535.21 704.677 536.099C703.376 536.987 701.845 537.479 700.271 537.512L700.132 537.419ZM95.6501 515.036C93.9671 515.025 92.3287 514.493 90.9597 513.514C89.5908 512.535 88.5582 511.157 88.0036 509.568L87.2158 507.204C86.8781 506.194 86.7426 505.127 86.8172 504.065C86.8917 503.002 87.1748 501.964 87.6503 501.011C88.1258 500.058 88.7844 499.208 89.5885 498.509C90.3926 497.811 91.3263 497.277 92.3365 496.939C93.3467 496.602 94.4137 496.466 95.4763 496.541C96.5388 496.615 97.5763 496.898 98.5295 497.374C99.4826 497.849 100.333 498.508 101.031 499.312C101.73 500.116 102.264 501.05 102.601 502.06L103.343 504.285C104.036 506.319 103.893 508.545 102.946 510.474C101.999 512.403 100.325 513.877 98.2914 514.572C97.4951 514.899 96.6488 515.087 95.7891 515.129L95.6501 515.036ZM716.629 488.019C715.974 488.01 715.322 487.933 714.683 487.787C713.649 487.532 712.676 487.076 711.819 486.443C710.963 485.81 710.24 485.014 709.693 484.101C709.146 483.188 708.785 482.175 708.631 481.121C708.478 480.068 708.534 478.994 708.798 477.962L709.307 475.692C709.554 474.654 710.002 473.675 710.627 472.811C711.252 471.947 712.041 471.214 712.949 470.654C713.857 470.095 714.866 469.72 715.919 469.55C716.972 469.381 718.048 469.421 719.086 469.667C720.123 469.914 721.102 470.362 721.966 470.987C722.831 471.612 723.563 472.401 724.123 473.309C724.682 474.217 725.057 475.226 725.227 476.279C725.396 477.332 725.356 478.408 725.11 479.445L724.507 481.855C724.098 483.602 723.121 485.164 721.729 486.296C720.337 487.428 718.608 488.066 716.815 488.111L716.629 488.019ZM82.8133 464.523C80.9001 464.517 79.0507 463.835 77.5921 462.596C76.1335 461.358 75.1596 459.644 74.8425 457.757L74.4255 455.348C74.1736 453.272 74.7329 451.18 75.9866 449.507C77.2404 447.834 79.0917 446.71 81.1543 446.369C83.2169 446.029 85.3314 446.497 87.0566 447.678C88.7818 448.859 89.9844 450.66 90.4134 452.706L90.8305 455.07C91.1653 457.182 90.6518 459.342 89.402 461.078C88.1521 462.814 86.2671 463.985 84.1573 464.338L82.8133 464.523ZM725.017 436.718H724.368C723.302 436.637 722.263 436.345 721.31 435.859C720.357 435.374 719.509 434.705 718.816 433.891C718.122 433.077 717.597 432.134 717.269 431.116C716.942 430.098 716.819 429.025 716.907 427.96V425.596C717.095 423.473 718.111 421.509 719.735 420.129C721.36 418.749 723.463 418.064 725.588 418.222C727.714 418.381 729.692 419.369 731.094 420.975C732.496 422.58 733.21 424.673 733.081 426.801V429.257C732.92 431.25 732.025 433.112 730.57 434.482C729.114 435.852 727.201 436.632 725.203 436.672L725.017 436.718ZM78.2719 412.713C76.137 412.713 74.0881 411.872 72.5698 410.371C71.0516 408.87 70.1865 406.831 70.1621 404.696V401.499C70.1621 399.348 71.0164 397.285 72.5373 395.764C74.0582 394.243 76.1211 393.389 78.2719 393.389C80.4228 393.389 82.4855 394.243 84.0064 395.764C85.5272 397.285 86.3817 399.348 86.3817 401.499V404.557C86.394 405.62 86.1959 406.675 85.7991 407.661C85.4022 408.647 84.8144 409.544 84.0693 410.302C83.3242 411.06 82.4367 411.664 81.4576 412.077C80.4786 412.491 79.4274 412.707 78.3645 412.713H78.2719ZM725.017 384.63C722.982 384.625 721.023 383.855 719.53 382.473C718.036 381.091 717.117 379.198 716.954 377.169V374.806C716.769 372.661 717.445 370.531 718.831 368.884C720.217 367.237 722.201 366.208 724.345 366.024C726.49 365.84 728.62 366.515 730.267 367.901C731.914 369.287 732.943 371.271 733.127 373.415V375.872C733.209 376.934 733.082 378.001 732.751 379.014C732.421 380.027 731.894 380.964 731.201 381.773C730.508 382.582 729.663 383.247 728.713 383.729C727.763 384.211 726.728 384.502 725.666 384.584L725.017 384.63ZM82.2572 360.023H81.0061C79.953 359.859 78.9424 359.489 78.0323 358.935C77.1223 358.38 76.3305 357.652 75.7021 356.791C75.0737 355.93 74.6212 354.954 74.3703 353.918C74.1195 352.882 74.0752 351.807 74.2401 350.754L74.6109 348.345C74.7813 347.292 75.1573 346.283 75.7177 345.375C76.278 344.468 77.0115 343.68 77.8765 343.056C78.7414 342.432 79.7208 341.984 80.7587 341.739C81.7966 341.493 82.8726 341.455 83.9255 341.625C84.9783 341.795 85.9873 342.172 86.8948 342.732C87.8023 343.292 88.5905 344.026 89.2144 344.891C89.8384 345.756 90.2859 346.735 90.5314 347.773C90.7768 348.811 90.8155 349.887 90.6451 350.94L90.2744 353.257C89.9474 355.147 88.9642 356.862 87.4978 358.1C86.0315 359.337 84.1759 360.018 82.2572 360.023ZM717.139 333.098C715.324 333.108 713.559 332.504 712.129 331.386C710.699 330.267 709.689 328.699 709.261 326.935L708.705 324.664C708.38 323.611 708.273 322.503 708.39 321.408C708.507 320.313 708.847 319.252 709.387 318.293C709.928 317.333 710.658 316.493 711.534 315.824C712.41 315.156 713.413 314.673 714.482 314.405C715.55 314.137 716.662 314.09 717.75 314.266C718.837 314.442 719.877 314.838 720.807 315.429C721.737 316.021 722.536 316.795 723.156 317.706C723.776 318.616 724.205 319.643 724.415 320.725L725.017 323.088C725.272 324.123 725.32 325.198 725.157 326.251C724.994 327.305 724.624 328.315 724.068 329.224C723.512 330.134 722.781 330.924 721.918 331.549C721.055 332.174 720.076 332.622 719.039 332.866C718.42 333.032 717.78 333.11 717.139 333.098ZM94.4915 309.51C93.6403 309.507 92.7952 309.366 91.989 309.093C90.9751 308.763 90.0363 308.235 89.2265 307.541C88.4166 306.847 87.7515 306 87.2694 305.049C86.7873 304.098 86.4976 303.061 86.4168 301.997C86.336 300.934 86.4659 299.865 86.7988 298.852L87.5865 296.535C87.8647 295.456 88.362 294.447 89.0473 293.569C89.7326 292.692 90.5912 291.964 91.5699 291.433C92.5485 290.902 93.626 290.578 94.7353 290.481C95.8447 290.385 96.962 290.517 98.0178 290.871C99.0735 291.225 100.045 291.793 100.872 292.539C101.698 293.285 102.363 294.193 102.823 295.207C103.284 296.221 103.53 297.319 103.548 298.432C103.566 299.545 103.354 300.651 102.926 301.678L102.231 303.903C101.694 305.533 100.658 306.952 99.2683 307.959C97.8788 308.966 96.2074 309.508 94.4915 309.51ZM700.549 283.791C698.961 283.792 697.407 283.328 696.081 282.454C694.755 281.581 693.714 280.338 693.088 278.878L692.161 276.7C691.301 274.728 691.259 272.494 692.046 270.491C692.832 268.488 694.382 266.879 696.355 266.019C698.328 265.158 700.561 265.117 702.564 265.903C704.568 266.69 706.176 268.24 707.037 270.212L708.01 272.483C708.847 274.463 708.869 276.694 708.071 278.69C707.272 280.686 705.718 282.286 703.746 283.142C702.721 283.509 701.637 283.682 700.549 283.652V283.791ZM114.696 261.315C113.39 261.304 112.104 260.987 110.943 260.388C109.996 259.899 109.155 259.227 108.469 258.412C107.783 257.596 107.266 256.652 106.947 255.635C106.628 254.618 106.514 253.548 106.611 252.486C106.708 251.425 107.015 250.393 107.514 249.451L108.626 247.273C109.104 246.298 109.774 245.428 110.596 244.717C111.417 244.005 112.373 243.466 113.407 243.131C114.44 242.796 115.531 242.673 116.613 242.767C117.696 242.862 118.748 243.173 119.708 243.683C120.668 244.192 121.515 244.889 122.201 245.733C122.886 246.576 123.394 247.549 123.696 248.593C123.998 249.636 124.087 250.73 123.958 251.809C123.829 252.888 123.485 253.93 122.945 254.873L121.879 256.912C121.2 258.234 120.171 259.343 118.905 260.12C117.638 260.896 116.182 261.309 114.696 261.315ZM676.312 237.449C674.94 237.451 673.59 237.104 672.39 236.439C671.19 235.774 670.179 234.813 669.453 233.649L668.202 231.702C667.559 230.809 667.104 229.794 666.865 228.719C666.627 227.644 666.61 226.532 666.815 225.45C667.02 224.368 667.444 223.339 668.06 222.426C668.675 221.514 669.471 220.736 670.397 220.14C671.323 219.545 672.361 219.144 673.447 218.963C674.533 218.782 675.645 218.824 676.714 219.086C677.784 219.348 678.789 219.826 679.667 220.489C680.546 221.152 681.281 221.987 681.827 222.944L683.171 225.029C683.956 226.253 684.396 227.666 684.444 229.119C684.492 230.572 684.147 232.011 683.444 233.284C682.741 234.556 681.707 235.615 680.452 236.349C679.196 237.082 677.766 237.462 676.312 237.449ZM142.502 217.151C140.995 217.151 139.519 216.732 138.238 215.94C136.957 215.148 135.921 214.015 135.248 212.668C134.574 211.321 134.289 209.813 134.425 208.313C134.56 206.813 135.11 205.38 136.014 204.175L137.497 202.229C138.123 201.34 138.923 200.586 139.847 200.012C140.771 199.438 141.801 199.056 142.876 198.888C143.951 198.72 145.049 198.771 146.104 199.036C147.159 199.302 148.15 199.777 149.017 200.433C149.885 201.089 150.612 201.913 151.154 202.856C151.697 203.799 152.044 204.841 152.176 205.921C152.307 207.001 152.22 208.097 151.919 209.142C151.619 210.188 151.111 211.162 150.426 212.007L148.989 213.907C148.236 214.917 147.257 215.737 146.131 216.3C145.004 216.863 143.761 217.155 142.502 217.151ZM645.217 195.788C644.069 195.79 642.933 195.548 641.886 195.076C640.839 194.605 639.905 193.915 639.146 193.053L637.57 191.292C636.145 189.689 635.409 187.588 635.522 185.446C635.635 183.303 636.587 181.291 638.173 179.846C638.961 179.129 639.884 178.575 640.888 178.217C641.892 177.859 642.957 177.703 644.022 177.759C645.086 177.815 646.129 178.082 647.09 178.543C648.05 179.005 648.91 179.653 649.619 180.448L651.288 182.302C652.713 183.912 653.441 186.023 653.31 188.169C653.18 190.316 652.202 192.323 650.592 193.749C649.053 195.089 647.073 195.815 645.031 195.788H645.217ZM176.841 177.946C175.763 177.952 174.695 177.742 173.7 177.328C172.705 176.914 171.804 176.305 171.048 175.536C169.531 174.008 168.68 171.943 168.68 169.79C168.68 167.637 169.531 165.571 171.048 164.044L172.855 162.329C174.41 160.842 176.492 160.033 178.643 160.081C180.794 160.129 182.838 161.029 184.325 162.584C185.812 164.139 186.621 166.22 186.573 168.371C186.525 170.522 185.625 172.566 184.07 174.053L182.355 175.675C180.829 177.154 178.78 177.97 176.655 177.946H176.841ZM607.819 159.409C605.941 159.409 604.121 158.754 602.675 157.556L600.868 156.073C600.003 155.416 599.278 154.592 598.738 153.651C598.197 152.709 597.851 151.668 597.72 150.59C597.59 149.512 597.677 148.418 597.977 147.374C598.276 146.331 598.783 145.358 599.466 144.513C600.149 143.669 600.994 142.97 601.952 142.459C602.91 141.948 603.961 141.634 605.043 141.536C606.125 141.439 607.215 141.559 608.249 141.891C609.283 142.223 610.24 142.759 611.063 143.468L612.917 144.997C613.746 145.666 614.434 146.494 614.941 147.43C615.449 148.367 615.765 149.395 615.873 150.456C615.981 151.516 615.877 152.586 615.569 153.606C615.26 154.626 614.753 155.575 614.075 156.397C613.321 157.428 612.329 158.262 611.183 158.826C610.037 159.391 608.772 159.671 607.495 159.641L607.819 159.409ZM216.648 144.765C214.917 144.771 213.229 144.222 211.832 143.199C210.435 142.177 209.402 140.734 208.884 139.081C208.366 137.429 208.39 135.655 208.954 134.017C209.517 132.38 210.589 130.966 212.014 129.982L214.007 128.592C215.777 127.363 217.962 126.887 220.083 127.27C222.203 127.652 224.085 128.861 225.314 130.631C226.543 132.401 227.019 134.587 226.636 136.707C226.254 138.828 225.045 140.709 223.275 141.938L221.329 143.282C219.969 144.269 218.328 144.789 216.648 144.765ZM564.489 129.936C563.074 129.952 561.681 129.583 560.458 128.87L558.372 127.665C557.302 127.225 556.339 126.56 555.546 125.717C554.754 124.873 554.152 123.869 553.78 122.774C553.408 121.678 553.274 120.515 553.389 119.363C553.503 118.212 553.863 117.098 554.444 116.097C555.024 115.096 555.812 114.231 556.755 113.559C557.698 112.888 558.773 112.426 559.909 112.205C561.045 111.984 562.215 112.009 563.341 112.277C564.467 112.546 565.522 113.052 566.436 113.763L568.521 114.968C570.089 115.841 571.321 117.213 572.022 118.865C572.722 120.518 572.851 122.357 572.389 124.091C571.926 125.826 570.898 127.356 569.467 128.44C568.036 129.524 566.284 130.099 564.489 130.075V129.936ZM261.646 118.397C259.803 118.405 258.012 117.785 256.568 116.639C255.124 115.492 254.114 113.889 253.704 112.092C253.294 110.295 253.508 108.411 254.312 106.752C255.115 105.093 256.46 103.758 258.124 102.965L260.349 101.899C261.313 101.446 262.358 101.187 263.422 101.137C264.487 101.087 265.551 101.248 266.554 101.609C267.556 101.971 268.478 102.526 269.266 103.244C270.054 103.962 270.693 104.827 271.146 105.792C271.6 106.757 271.858 107.801 271.908 108.866C271.958 109.93 271.798 110.994 271.436 111.997C271.075 113 270.519 113.921 269.802 114.709C269.084 115.497 268.218 116.136 267.254 116.59L265.122 117.609C264.089 118.091 262.97 118.359 261.831 118.397H261.646ZM517.87 107.507C516.888 107.522 515.913 107.349 514.996 106.997L512.772 106.163C511.758 105.804 510.825 105.247 510.028 104.524C509.231 103.801 508.585 102.927 508.13 101.952C507.674 100.977 507.417 99.9216 507.373 98.8465C507.329 97.7713 507.5 96.6983 507.875 95.6897C508.25 94.6812 508.822 93.7575 509.558 92.9722C510.294 92.187 511.178 91.556 512.16 91.116C513.142 90.6761 514.202 90.4359 515.277 90.4095C516.353 90.3832 517.423 90.5712 518.426 90.9626L520.743 91.8431C522.497 92.5284 523.959 93.8033 524.876 95.4487C525.793 97.0941 526.109 99.0075 525.769 100.86C525.429 102.713 524.455 104.39 523.013 105.603C521.572 106.816 519.753 107.489 517.87 107.507ZM310.629 99.6285C308.878 99.6137 307.178 99.039 305.777 97.9883C304.376 96.9377 303.348 95.4663 302.844 93.7894C302.242 91.7246 302.484 89.5052 303.519 87.6193C304.553 85.7334 306.294 84.3355 308.359 83.7333L310.722 83.0382C311.744 82.7339 312.817 82.634 313.878 82.7441C314.939 82.8542 315.968 83.1723 316.906 83.68C317.844 84.1878 318.673 84.8754 319.345 85.7035C320.018 86.5317 320.52 87.4841 320.825 88.5065C321.129 89.5289 321.229 90.6012 321.119 91.6622C321.008 92.7232 320.69 93.7521 320.183 94.6902C319.675 95.6283 318.987 96.4573 318.159 97.1297C317.331 97.802 316.379 98.3047 315.356 98.609L313.132 99.3041C312.26 99.5604 311.352 99.67 310.444 99.6285H310.629ZM467.821 92.9553H466.199L463.928 92.4919C462.836 92.3397 461.787 91.9667 460.845 91.3955C459.902 90.8243 459.086 90.0669 458.446 89.1698C457.806 88.2726 457.355 87.2544 457.122 86.1772C456.888 85.1001 456.877 83.9867 457.088 82.905C457.3 81.8234 457.729 80.796 458.351 79.8859C458.972 78.9758 459.773 78.202 460.703 77.6116C461.634 77.0212 462.675 76.6267 463.764 76.4522C464.852 76.2777 465.964 76.3269 467.033 76.5967L469.489 77.0601C471.439 77.4842 473.165 78.6128 474.335 80.2298C475.506 81.8468 476.039 83.8386 475.832 85.824C475.625 87.8093 474.694 89.6488 473.216 90.9902C471.737 92.3317 469.817 93.0808 467.821 93.0943V92.9553ZM361.652 88.9699C359.56 89.014 357.532 88.248 355.992 86.8321C354.452 85.4162 353.519 83.46 353.387 81.3721C353.256 79.2842 353.936 77.2262 355.286 75.6281C356.636 74.0301 358.552 73.0156 360.632 72.7966L363.088 72.5186C365.154 72.3951 367.189 73.066 368.776 74.3942C370.364 75.7223 371.383 77.607 371.626 79.6623C371.869 81.7177 371.317 83.7881 370.083 85.4495C368.849 87.111 367.026 88.2378 364.988 88.5992L362.671 88.8772L361.652 88.9699ZM416.103 86.6528H415.779H413.415C412.305 86.6895 411.199 86.4976 410.166 86.0891C409.133 85.6805 408.194 85.0641 407.409 84.278C406.624 83.4919 406.009 82.5528 405.602 81.5191C405.195 80.4854 405.005 79.3791 405.043 78.2687C405.081 77.1584 405.347 76.0678 405.824 75.0645C406.301 74.0612 406.979 73.1666 407.817 72.4363C408.654 71.7059 409.632 71.1554 410.691 70.8188C411.75 70.4822 412.866 70.3667 413.971 70.4795H416.427C418.467 70.6697 420.359 71.6248 421.724 73.1529C423.088 74.681 423.824 76.6688 423.783 78.717C423.742 80.7652 422.927 82.7219 421.502 84.194C420.078 85.6662 418.149 86.5446 416.103 86.6528Z" fill="#F6F6F6"/>
<path d="M415.314 670.005C413.265 669.912 411.327 669.046 409.891 667.582C408.455 666.117 407.627 664.163 407.574 662.112C407.521 660.062 408.247 658.068 409.606 656.531C410.965 654.995 412.855 654.03 414.897 653.832H417.26C419.342 653.815 421.349 654.6 422.868 656.023C424.387 657.446 425.301 659.399 425.42 661.477C425.539 663.555 424.855 665.599 423.508 667.187C422.162 668.774 420.257 669.783 418.187 670.005H415.731H415.314ZM365.172 667.688C364.803 667.732 364.429 667.732 364.06 667.688L361.604 667.363C360.529 667.23 359.493 666.883 358.555 666.342C357.617 665.802 356.797 665.079 356.143 664.217C355.488 663.355 355.013 662.37 354.746 661.321C354.478 660.272 354.423 659.181 354.584 658.11C354.745 657.04 355.118 656.012 355.682 655.089C356.247 654.165 356.99 653.363 357.869 652.731C358.748 652.099 359.744 651.65 360.799 651.409C361.855 651.168 362.947 651.141 364.013 651.329L366.284 651.653C368.297 651.959 370.121 653.011 371.395 654.6C372.668 656.189 373.297 658.198 373.157 660.229C373.017 662.26 372.118 664.165 370.638 665.564C369.159 666.963 367.208 667.754 365.172 667.78V667.688ZM467.124 662.127C465.166 662.1 463.284 661.367 461.826 660.061C460.367 658.755 459.429 656.966 459.186 655.024C458.944 653.081 459.412 651.116 460.504 649.492C461.597 647.867 463.24 646.693 465.131 646.185L467.356 645.629C469.367 645.241 471.451 645.628 473.189 646.713C474.926 647.797 476.189 649.5 476.723 651.478C477.257 653.455 477.023 655.562 476.068 657.374C475.112 659.186 473.506 660.57 471.573 661.246L469.117 661.895C468.526 662.047 467.919 662.125 467.309 662.127H467.124ZM314.196 654.99C313.245 655.001 312.301 654.828 311.416 654.48L309.099 653.646C307.179 652.833 305.647 651.312 304.819 649.399C303.992 647.486 303.933 645.328 304.654 643.372C305.375 641.417 306.822 639.814 308.694 638.897C310.565 637.98 312.718 637.818 314.706 638.446L316.93 639.28C318.705 639.941 320.192 641.201 321.135 642.843C322.078 644.486 322.416 646.406 322.092 648.271C321.767 650.137 320.8 651.83 319.358 653.057C317.915 654.284 316.089 654.968 314.196 654.99ZM516.709 643.914C514.88 643.911 513.104 643.289 511.673 642.15C510.241 641.01 509.237 639.42 508.823 637.637C508.41 635.854 508.612 633.984 509.395 632.331C510.179 630.677 511.499 629.337 513.141 628.529L515.226 627.509C516.179 627.032 517.216 626.746 518.279 626.669C519.342 626.592 520.409 626.726 521.42 627.061C522.432 627.397 523.367 627.928 524.173 628.626C524.978 629.323 525.639 630.172 526.117 631.124C526.595 632.077 526.88 633.114 526.957 634.176C527.034 635.239 526.901 636.307 526.565 637.318C526.229 638.329 525.698 639.264 525.001 640.07C524.304 640.876 523.455 641.537 522.502 642.014L520.278 643.08C519.152 643.631 517.916 643.916 516.663 643.914H516.709ZM266.742 632.19C265.25 632.201 263.786 631.783 262.525 630.985L260.44 629.688C259.527 629.125 258.734 628.387 258.106 627.518C257.478 626.649 257.027 625.664 256.78 624.62C256.533 623.577 256.493 622.495 256.664 621.436C256.834 620.377 257.212 619.363 257.775 618.45C258.338 617.537 259.075 616.744 259.945 616.116C260.814 615.488 261.799 615.037 262.842 614.79C263.886 614.542 264.968 614.503 266.027 614.674C267.085 614.844 268.1 615.222 269.013 615.785L271.006 616.99C272.51 617.916 273.67 619.308 274.31 620.954C274.951 622.601 275.036 624.411 274.554 626.11C274.071 627.809 273.047 629.304 271.637 630.368C270.227 631.432 268.508 632.007 266.742 632.005V632.19ZM561.383 616.109C559.653 616.163 557.951 615.662 556.526 614.68C555.101 613.697 554.028 612.284 553.463 610.648C552.899 609.012 552.873 607.238 553.389 605.586C553.905 603.933 554.936 602.49 556.332 601.465L558.185 600.029C559.011 599.301 559.977 598.749 561.023 598.407C562.069 598.065 563.174 597.939 564.27 598.037C565.366 598.135 566.431 598.456 567.4 598.979C568.368 599.502 569.22 600.216 569.903 601.079C570.587 601.942 571.087 602.935 571.375 603.998C571.662 605.06 571.73 606.17 571.574 607.26C571.419 608.35 571.043 609.396 570.47 610.336C569.897 611.276 569.139 612.089 568.241 612.726L566.295 614.256C564.898 615.414 563.151 616.067 561.337 616.109H561.383ZM224.896 600.353C222.851 600.336 220.886 599.56 219.381 598.175L217.574 596.461C216.16 594.949 215.378 592.954 215.388 590.884C215.397 588.814 216.198 586.827 217.625 585.328C219.053 583.83 220.999 582.934 223.066 582.823C225.133 582.713 227.163 583.398 228.742 584.736L230.457 586.312C231.601 587.432 232.387 588.866 232.717 590.434C233.047 592.001 232.906 593.63 232.312 595.117C231.717 596.604 230.695 597.881 229.375 598.789C228.056 599.696 226.497 600.192 224.896 600.214V600.353ZM599.522 579.87C597.581 579.894 595.7 579.201 594.239 577.924C593.432 577.227 592.77 576.379 592.292 575.426C591.813 574.474 591.527 573.437 591.449 572.374C591.372 571.31 591.505 570.243 591.84 569.231C592.176 568.219 592.707 567.283 593.405 566.477L594.888 564.716C596.283 563.076 598.273 562.056 600.419 561.882C602.566 561.708 604.694 562.395 606.334 563.79C607.975 565.185 608.995 567.174 609.168 569.321C609.342 571.467 608.656 573.595 607.261 575.236L605.686 577.09C604.912 577.973 603.956 578.678 602.884 579.158C601.813 579.638 600.65 579.881 599.476 579.87H599.522ZM190.278 560.731C188.983 560.741 187.705 560.438 186.551 559.85C185.398 559.261 184.403 558.403 183.651 557.348L182.261 555.309C181.115 553.544 180.7 551.402 181.104 549.336C181.508 547.27 182.699 545.442 184.426 544.239C186.153 543.035 188.28 542.551 190.358 542.887C192.436 543.223 194.302 544.354 195.561 546.041L196.905 547.941C197.52 548.811 197.958 549.794 198.193 550.833C198.428 551.872 198.456 552.948 198.275 553.998C198.094 555.048 197.708 556.052 197.139 556.953C196.57 557.854 195.829 558.634 194.959 559.248C193.579 560.229 191.925 560.748 190.232 560.731H190.278ZM629.598 536.587C628.184 536.593 626.794 536.227 625.566 535.526C624.338 534.825 623.316 533.814 622.602 532.593C621.889 531.373 621.509 529.986 621.5 528.572C621.492 527.158 621.855 525.767 622.554 524.538L623.712 522.453C624.186 521.447 624.861 520.549 625.696 519.815C626.531 519.081 627.509 518.527 628.567 518.186C629.625 517.846 630.742 517.727 631.849 517.836C632.955 517.946 634.027 518.281 634.998 518.823C635.97 519.364 636.819 520.099 637.494 520.983C638.169 521.866 638.655 522.879 638.922 523.958C639.189 525.037 639.232 526.16 639.047 527.256C638.862 528.353 638.453 529.399 637.847 530.331L636.688 532.416C635.993 533.687 634.967 534.746 633.719 535.48C632.47 536.215 631.046 536.597 629.598 536.587ZM164.234 514.853C162.659 514.849 161.12 514.387 159.803 513.523C158.486 512.659 157.449 511.43 156.82 509.987L155.846 507.716C155.352 506.728 155.064 505.65 155.001 504.547C154.938 503.444 155.101 502.34 155.48 501.302C155.859 500.264 156.447 499.315 157.206 498.512C157.965 497.71 158.88 497.071 159.895 496.634C160.91 496.198 162.003 495.974 163.108 495.975C164.213 495.976 165.305 496.203 166.319 496.642C167.333 497.081 168.247 497.722 169.004 498.527C169.761 499.332 170.346 500.282 170.722 501.321L171.649 503.453C172.081 504.426 172.318 505.476 172.344 506.541C172.371 507.606 172.188 508.665 171.805 509.66C171.422 510.654 170.846 511.563 170.112 512.334C169.378 513.106 168.498 513.726 167.524 514.158C166.501 514.677 165.38 514.977 164.234 515.038V514.853ZM650.452 488.299C649.618 488.315 648.787 488.19 647.995 487.928C646.978 487.607 646.035 487.088 645.219 486.401C644.402 485.715 643.73 484.874 643.239 483.927C642.748 482.98 642.449 481.945 642.359 480.882C642.269 479.819 642.389 478.749 642.713 477.733L643.361 475.555C644.051 473.588 645.472 471.963 647.329 471.016C649.186 470.069 651.336 469.873 653.333 470.469C655.331 471.065 657.022 472.408 658.056 474.218C659.089 476.027 659.387 478.166 658.886 480.189L658.144 482.599C657.673 484.281 656.668 485.764 655.28 486.825C653.893 487.887 652.198 488.469 650.452 488.484V488.299ZM148.061 464.943C146.213 464.953 144.416 464.328 142.974 463.172C141.531 462.016 140.53 460.4 140.136 458.594L139.627 456.138C139.19 454.03 139.609 451.835 140.791 450.036C141.973 448.237 143.821 446.981 145.929 446.545C148.037 446.109 150.232 446.528 152.031 447.709C153.83 448.891 155.086 450.74 155.522 452.847L155.985 455.118C156.217 456.159 156.239 457.236 156.052 458.286C155.864 459.335 155.47 460.337 154.892 461.234C154.315 462.13 153.565 462.903 152.687 463.508C151.809 464.113 150.819 464.538 149.776 464.757C149.214 464.888 148.638 464.95 148.061 464.943ZM661.064 437.138H660.23C658.093 436.904 656.134 435.84 654.773 434.176C653.412 432.512 652.759 430.381 652.954 428.24L653.186 425.923C653.383 423.778 654.423 421.799 656.079 420.422C657.734 419.044 659.869 418.381 662.014 418.578C664.159 418.774 666.137 419.815 667.515 421.471C668.892 423.126 669.556 425.261 669.359 427.406L669.128 429.862C668.889 431.832 667.937 433.646 666.451 434.962C664.965 436.277 663.048 437.002 661.064 436.999V437.138ZM142.5 412.669C140.365 412.669 138.316 411.828 136.798 410.327C135.28 408.826 134.415 406.787 134.39 404.652V401.362C134.39 399.211 135.245 397.148 136.765 395.627C138.286 394.106 140.349 393.252 142.5 393.252C144.651 393.252 146.714 394.106 148.234 395.627C149.755 397.148 150.61 399.211 150.61 401.362V404.513C150.622 406.656 149.786 408.717 148.284 410.245C146.781 411.773 144.735 412.645 142.593 412.669H142.5ZM661.527 384.401C659.514 384.399 657.574 383.648 656.084 382.295C654.593 380.941 653.659 379.082 653.464 377.079L653.232 374.762C652.999 372.623 653.624 370.479 654.971 368.802C656.318 367.125 658.277 366.051 660.415 365.818C662.554 365.584 664.698 366.21 666.375 367.557C668.052 368.904 669.126 370.862 669.359 373.001V375.457C669.579 377.595 668.942 379.733 667.586 381.402C666.231 383.07 664.268 384.132 662.13 384.354L661.527 384.401ZM147.134 359.515C146.61 359.56 146.083 359.56 145.559 359.515C143.5 359.099 141.683 357.901 140.49 356.172C139.297 354.443 138.822 352.319 139.163 350.247L139.673 347.791C139.829 346.693 140.208 345.639 140.787 344.694C141.366 343.749 142.133 342.933 143.04 342.296C143.947 341.658 144.975 341.214 146.06 340.989C147.146 340.765 148.266 340.765 149.351 340.991C150.436 341.216 151.464 341.661 152.37 342.299C153.276 342.937 154.042 343.754 154.621 344.7C155.199 345.645 155.577 346.7 155.732 347.797C155.887 348.895 155.816 350.012 155.522 351.081L155.059 353.352C154.629 355.124 153.612 356.698 152.172 357.817C150.733 358.936 148.957 359.535 147.134 359.515ZM650.683 332.683C648.978 332.689 647.314 332.154 645.932 331.155C644.55 330.156 643.52 328.744 642.991 327.122L642.296 324.944C641.892 323.917 641.703 322.818 641.739 321.715C641.775 320.611 642.037 319.527 642.506 318.528C642.976 317.53 643.645 316.637 644.472 315.906C645.299 315.175 646.266 314.62 647.315 314.276C648.364 313.932 649.472 313.805 650.571 313.904C651.67 314.003 652.738 314.325 653.708 314.851C654.679 315.377 655.532 316.095 656.215 316.962C656.898 317.829 657.397 318.826 657.681 319.893L658.469 322.349C659.092 324.408 658.877 326.629 657.87 328.53C656.863 330.431 655.146 331.857 653.093 332.498C652.303 332.677 651.491 332.74 650.683 332.683ZM162.659 309.095C161.562 309.081 160.477 308.861 159.461 308.447C157.489 307.59 155.935 305.99 155.137 303.994C154.338 301.998 154.36 299.768 155.198 297.788L156.402 295.61C157.303 293.709 158.907 292.231 160.876 291.49C162.844 290.749 165.024 290.802 166.955 291.638C168.885 292.474 170.415 294.028 171.222 295.971C172.029 297.914 172.049 300.094 171.278 302.051L170.351 304.229C169.725 305.743 168.654 307.031 167.281 307.925C165.908 308.818 164.296 309.275 162.659 309.234V309.095ZM630.015 284.488C628.557 284.487 627.126 284.095 625.871 283.354C624.616 282.612 623.582 281.547 622.878 280.271L621.766 278.278C621.045 277.364 620.528 276.306 620.252 275.175C619.976 274.044 619.947 272.867 620.166 271.723C620.385 270.58 620.849 269.497 621.524 268.548C622.199 267.6 623.071 266.808 624.079 266.226C625.088 265.645 626.21 265.287 627.369 265.178C628.528 265.068 629.697 265.21 630.797 265.593C631.896 265.976 632.901 266.591 633.741 267.396C634.582 268.202 635.239 269.179 635.669 270.261L636.874 272.439C637.391 273.37 637.72 274.394 637.842 275.452C637.963 276.51 637.875 277.582 637.583 278.606C637.29 279.631 636.798 280.587 636.136 281.421C635.474 282.256 634.654 282.951 633.722 283.468C632.58 284.085 631.312 284.433 630.015 284.488ZM187.915 263.171C186.259 263.182 184.64 262.68 183.281 261.734C182.399 261.13 181.645 260.358 181.063 259.463C180.481 258.567 180.081 257.565 179.888 256.514C179.694 255.463 179.71 254.384 179.934 253.34C180.158 252.295 180.587 251.305 181.195 250.427L182.632 248.434C183.238 247.561 184.012 246.817 184.907 246.244C185.802 245.671 186.802 245.281 187.848 245.096C188.895 244.911 189.967 244.934 191.005 245.165C192.042 245.396 193.024 245.83 193.893 246.441C195.648 247.683 196.843 249.567 197.216 251.685C197.589 253.803 197.111 255.982 195.886 257.749L194.542 259.649C193.803 260.726 192.814 261.609 191.66 262.222C190.506 262.836 189.221 263.161 187.915 263.171ZM599.986 241.297C598.816 241.293 597.661 241.038 596.598 240.551C595.535 240.063 594.589 239.354 593.822 238.471L592.293 236.71C590.879 235.087 590.168 232.97 590.316 230.823C590.464 228.677 591.458 226.677 593.081 225.263C594.703 223.85 596.82 223.139 598.967 223.286C601.114 223.434 603.114 224.429 604.527 226.051L606.149 227.905C607.16 229.082 607.812 230.526 608.027 232.063C608.243 233.601 608.012 235.168 607.363 236.578C606.714 237.988 605.674 239.183 604.366 240.019C603.058 240.856 601.538 241.299 599.986 241.297ZM221.93 223.039C220.325 223.025 218.759 222.536 217.433 221.632C216.106 220.729 215.077 219.451 214.477 217.963C213.876 216.474 213.731 214.841 214.06 213.269C214.388 211.698 215.176 210.26 216.322 209.136L218.13 207.422C219.713 206.085 221.748 205.405 223.817 205.522C225.886 205.639 227.832 206.543 229.255 208.049C230.678 209.555 231.471 211.549 231.47 213.621C231.47 215.694 230.676 217.687 229.252 219.192L227.537 220.814C226.024 222.245 224.012 223.027 221.93 222.992V223.039ZM561.939 204.965C560.125 204.973 558.362 204.369 556.934 203.251L555.08 201.861C553.372 200.552 552.254 198.618 551.971 196.484C551.689 194.35 552.265 192.192 553.574 190.484C554.883 188.775 556.817 187.657 558.951 187.374C561.084 187.092 563.243 187.669 564.951 188.978L566.897 190.507C568.237 191.535 569.219 192.958 569.707 194.575C570.194 196.192 570.162 197.921 569.614 199.518C569.066 201.115 568.031 202.5 566.654 203.478C565.277 204.455 563.628 204.975 561.939 204.965ZM263.313 190.553C261.552 190.559 259.838 189.993 258.428 188.938C257.018 187.884 255.989 186.4 255.498 184.71C255.006 183.019 255.077 181.215 255.701 179.569C256.325 177.923 257.468 176.524 258.957 175.585L261.042 174.287C262.886 173.15 265.105 172.792 267.213 173.292C269.32 173.792 271.143 175.108 272.28 176.952C273.417 178.795 273.775 181.015 273.275 183.123C272.775 185.23 271.459 187.053 269.615 188.19L267.623 189.024C266.361 189.927 264.863 190.443 263.313 190.507V190.553ZM517.358 177.021C516.121 177.016 514.901 176.731 513.79 176.187L511.658 175.121C510.706 174.653 509.855 174.001 509.154 173.204C508.454 172.406 507.917 171.479 507.575 170.474C507.233 169.469 507.092 168.407 507.161 167.348C507.229 166.288 507.505 165.253 507.974 164.301C508.443 163.348 509.094 162.497 509.892 161.797C510.689 161.096 511.617 160.56 512.621 160.217C513.626 159.875 514.689 159.734 515.748 159.803C516.807 159.871 517.842 160.148 518.795 160.616L520.927 161.636C522.568 162.444 523.888 163.784 524.672 165.438C525.456 167.091 525.658 168.961 525.244 170.744C524.831 172.526 523.827 174.117 522.395 175.257C520.963 176.396 519.188 177.018 517.358 177.021ZM310.35 167.012C308.466 166.994 306.647 166.321 305.206 165.108C303.764 163.895 302.79 162.218 302.45 160.365C302.11 158.512 302.426 156.599 303.343 154.954C304.26 153.308 305.722 152.033 307.477 151.348L309.84 150.468C310.855 150.02 311.951 149.785 313.06 149.777C314.169 149.77 315.268 149.99 316.289 150.424C317.31 150.858 318.231 151.497 318.995 152.302C319.759 153.106 320.35 154.059 320.731 155.1C321.112 156.142 321.275 157.251 321.211 158.359C321.146 159.466 320.855 160.548 320.356 161.539C319.856 162.529 319.159 163.407 318.306 164.117C317.454 164.827 316.465 165.355 315.401 165.668L313.223 166.502C312.303 166.838 311.328 166.995 310.35 166.965V167.012ZM467.912 158.67C467.223 158.669 466.537 158.575 465.873 158.392L463.602 157.836C461.512 157.314 459.716 155.983 458.608 154.136C457.5 152.289 457.171 150.078 457.693 147.988C458.216 145.899 459.547 144.103 461.393 142.994C463.24 141.886 465.452 141.557 467.541 142.08L469.951 142.728C471.845 143.237 473.49 144.416 474.583 146.045C475.675 147.674 476.139 149.644 475.89 151.589C475.642 153.535 474.696 155.324 473.229 156.626C471.762 157.928 469.873 158.654 467.912 158.67ZM361.001 153.526C358.954 153.533 356.98 152.766 355.475 151.378C353.97 149.991 353.045 148.085 352.887 146.044C352.728 144.003 353.348 141.977 354.621 140.374C355.894 138.77 357.726 137.708 359.75 137.399L362.206 137.028C364.291 136.803 366.381 137.394 368.04 138.677C369.698 139.959 370.795 141.835 371.101 143.909C371.407 145.983 370.897 148.095 369.679 149.802C368.462 151.508 366.63 152.677 364.57 153.063L362.299 153.433L361.001 153.526ZM415.916 150.653H413.645C411.495 150.573 409.464 149.642 407.999 148.065C406.535 146.487 405.757 144.393 405.837 142.242C405.917 140.091 406.848 138.06 408.425 136.596C410.002 135.131 412.097 134.353 414.248 134.433H416.797C418.948 134.495 420.986 135.408 422.463 136.972C423.941 138.537 424.736 140.624 424.675 142.775C424.613 144.926 423.7 146.964 422.136 148.441C420.571 149.919 418.484 150.714 416.333 150.653H415.916Z" fill="#F6F6F6"/>
<path d="M402.338 606.48C400.179 606.48 398.106 605.628 396.571 604.11C395.035 602.592 394.16 600.529 394.136 598.37C394.123 597.309 394.322 596.257 394.719 595.273C395.117 594.29 395.705 593.395 396.451 592.641C397.197 591.886 398.084 591.288 399.063 590.879C400.042 590.47 401.092 590.26 402.153 590.26H404.562C406.713 590.26 408.776 591.114 410.297 592.635C411.818 594.156 412.672 596.219 412.672 598.37C412.672 600.521 411.818 602.583 410.297 604.104C408.776 605.625 406.713 606.48 404.562 606.48H402.338ZM353.772 600.409C353.094 600.477 352.411 600.477 351.733 600.409L349.277 599.76C347.2 599.201 345.43 597.839 344.357 595.975C343.283 594.111 342.994 591.897 343.554 589.82C344.113 587.743 345.474 585.973 347.338 584.899C349.203 583.826 351.417 583.537 353.494 584.097L355.718 584.699C357.606 585.205 359.247 586.375 360.34 587.995C361.434 589.615 361.905 591.575 361.668 593.515C361.432 595.455 360.502 597.244 359.051 598.553C357.601 599.862 355.726 600.604 353.772 600.641V600.409ZM452.897 599.899C450.932 599.894 449.035 599.176 447.56 597.878C446.084 596.58 445.131 594.79 444.876 592.841C444.621 590.893 445.082 588.918 446.174 587.284C447.266 585.65 448.914 584.468 450.812 583.957L453.082 583.355C455.131 582.845 457.299 583.154 459.124 584.216C460.949 585.279 462.287 587.011 462.855 589.045C463.422 591.079 463.173 593.255 462.162 595.108C461.151 596.962 459.456 598.348 457.438 598.972L455.029 599.621C454.362 599.794 453.678 599.887 452.99 599.899H452.897ZM306.225 581.362C304.84 581.37 303.479 581.002 302.286 580.296L300.062 579.045C299.019 578.581 298.086 577.902 297.324 577.053C296.562 576.203 295.987 575.202 295.638 574.116C295.289 573.029 295.174 571.881 295.299 570.747C295.424 569.612 295.787 568.517 296.365 567.533C296.942 566.548 297.721 565.697 298.65 565.034C299.58 564.371 300.638 563.912 301.757 563.687C302.876 563.461 304.03 563.474 305.143 563.725C306.256 563.976 307.304 564.459 308.218 565.143L310.211 566.255C311.785 567.129 313.024 568.503 313.732 570.159C314.44 571.815 314.576 573.66 314.119 575.402C313.662 577.144 312.638 578.685 311.209 579.781C309.78 580.877 308.026 581.466 306.225 581.455V581.362ZM500.212 580.343C498.437 580.328 496.715 579.732 495.312 578.644C493.909 577.557 492.901 576.04 492.443 574.324C491.985 572.609 492.103 570.791 492.778 569.149C493.453 567.508 494.648 566.133 496.18 565.235L498.173 564.077C499.087 563.453 500.119 563.022 501.206 562.812C502.292 562.601 503.41 562.616 504.491 562.854C505.572 563.092 506.593 563.549 507.491 564.196C508.388 564.844 509.144 565.668 509.711 566.618C510.278 567.569 510.645 568.625 510.788 569.723C510.932 570.82 510.849 571.936 510.545 573C510.241 574.064 509.723 575.055 509.022 575.911C508.32 576.768 507.451 577.471 506.468 577.979L504.29 579.277C503.048 579.985 501.641 580.353 500.212 580.343ZM265.306 550.499C263.197 550.51 261.167 549.695 259.652 548.228L257.845 546.421C257.014 545.688 256.342 544.793 255.87 543.79C255.398 542.788 255.137 541.7 255.102 540.592C255.068 539.485 255.26 538.382 255.668 537.352C256.076 536.322 256.69 535.387 257.474 534.603C258.257 533.82 259.193 533.205 260.223 532.797C261.253 532.39 262.355 532.197 263.463 532.232C264.57 532.267 265.658 532.528 266.661 533C267.663 533.471 268.558 534.143 269.291 534.974L270.913 536.596C271.683 537.33 272.301 538.21 272.73 539.184C273.159 540.158 273.391 541.207 273.413 542.271C273.434 543.335 273.245 544.393 272.856 545.384C272.466 546.374 271.885 547.278 271.145 548.043C270.383 548.819 269.474 549.435 268.472 549.857C267.469 550.279 266.393 550.497 265.306 550.499ZM540.854 549.062C539.24 549.067 537.663 548.591 536.322 547.694C534.981 546.798 533.938 545.521 533.326 544.029C532.714 542.536 532.561 540.895 532.886 539.315C533.212 537.736 534.001 536.289 535.154 535.16L536.729 533.584C537.469 532.817 538.352 532.204 539.328 531.778C540.305 531.353 541.356 531.124 542.421 531.104C543.486 531.085 544.544 531.276 545.536 531.665C546.527 532.055 547.432 532.636 548.199 533.375C548.966 534.115 549.579 534.998 550.005 535.975C550.43 536.951 550.659 538.002 550.678 539.067C550.698 540.132 550.507 541.191 550.118 542.182C549.728 543.173 549.147 544.078 548.407 544.845L546.6 546.652C545.144 548.187 543.152 549.1 541.039 549.201L540.854 549.062ZM233.608 510.32C232.202 510.32 230.821 509.951 229.602 509.252C228.383 508.553 227.367 507.548 226.657 506.335L225.359 504.157C224.661 503.243 224.166 502.192 223.905 501.072C223.645 499.952 223.626 498.789 223.849 497.662C224.072 496.534 224.533 495.466 225.2 494.53C225.867 493.594 226.725 492.81 227.718 492.23C228.711 491.651 229.816 491.29 230.96 491.17C232.103 491.05 233.259 491.175 234.351 491.536C235.442 491.897 236.445 492.485 237.291 493.263C238.138 494.041 238.81 494.99 239.262 496.047L240.466 498.086C241.549 499.937 241.855 502.142 241.316 504.217C240.778 506.293 239.439 508.071 237.593 509.162C236.407 509.948 235.03 510.397 233.608 510.459V510.32ZM571.903 508.56C570.484 508.552 569.093 508.168 567.871 507.447C566.009 506.371 564.651 504.6 564.095 502.523C563.539 500.447 563.83 498.234 564.905 496.372L566.11 494.333C566.63 493.405 567.329 492.589 568.166 491.932C569.004 491.276 569.962 490.791 570.988 490.507C572.013 490.223 573.084 490.144 574.14 490.276C575.196 490.407 576.215 490.747 577.139 491.274C579.007 492.343 580.377 494.107 580.95 496.182C581.523 498.257 581.253 500.473 580.198 502.35L578.946 504.481C578.281 505.738 577.298 506.797 576.094 507.554C574.89 508.31 573.509 508.737 572.088 508.791L571.903 508.56ZM213.264 463.237C211.489 463.242 209.762 462.664 208.347 461.592C206.933 460.521 205.909 459.015 205.432 457.306L204.783 454.896C204.506 453.867 204.435 452.794 204.573 451.738C204.71 450.682 205.055 449.663 205.586 448.74C206.118 447.817 206.826 447.008 207.67 446.359C208.514 445.709 209.478 445.232 210.506 444.955C211.535 444.679 212.608 444.607 213.664 444.745C214.72 444.883 215.739 445.227 216.662 445.758C217.585 446.29 218.394 446.998 219.044 447.842C219.693 448.686 220.17 449.65 220.447 450.679L221.049 452.949C221.339 453.975 221.423 455.047 221.298 456.105C221.173 457.164 220.841 458.187 220.32 459.116C219.799 460.046 219.1 460.864 218.263 461.523C217.426 462.183 216.467 462.67 215.442 462.959C214.795 463.171 214.127 463.311 213.449 463.376L213.264 463.237ZM591.598 461.291C590.356 461.29 589.13 461.004 588.016 460.454C586.902 459.905 585.929 459.107 585.172 458.121C584.415 457.136 583.895 455.99 583.651 454.772C583.407 453.554 583.447 452.296 583.766 451.096L584.369 448.871C584.596 447.804 585.036 446.793 585.663 445.9C586.29 445.007 587.091 444.249 588.018 443.673C588.945 443.097 589.979 442.714 591.057 442.546C592.136 442.379 593.237 442.431 594.295 442.699C595.353 442.968 596.345 443.447 597.214 444.108C598.082 444.769 598.808 445.599 599.348 446.547C599.888 447.496 600.231 448.543 600.356 449.628C600.482 450.712 600.387 451.81 600.078 452.857L599.43 455.313C599.014 456.993 598.069 458.495 596.733 459.597C595.398 460.699 593.744 461.341 592.015 461.43L591.598 461.291ZM205.988 412.586C203.865 412.574 201.83 411.735 200.315 410.247C198.801 408.758 197.927 406.738 197.878 404.615V401.232C197.878 399.081 198.733 397.018 200.254 395.498C201.775 393.977 203.837 393.122 205.988 393.122C208.139 393.122 210.202 393.977 211.723 395.498C213.244 397.018 214.098 399.081 214.098 401.232V404.337C214.116 405.402 213.925 406.46 213.534 407.451C213.144 408.442 212.562 409.346 211.821 410.112C211.081 410.878 210.197 411.491 209.22 411.916C208.243 412.34 207.192 412.568 206.127 412.586H205.988ZM598.364 410.547C596.213 410.547 594.15 409.692 592.629 408.171C591.108 406.65 590.254 404.588 590.254 402.437V400.12C590.242 399.055 590.439 397.998 590.836 397.009C591.232 396.021 591.819 395.12 592.563 394.358C593.308 393.596 594.195 392.989 595.174 392.57C596.154 392.151 597.206 391.929 598.271 391.917C600.406 391.917 602.455 392.759 603.973 394.26C605.491 395.761 606.356 397.8 606.381 399.934V402.437C606.419 404.564 605.619 406.621 604.154 408.165C602.689 409.708 600.676 410.613 598.549 410.686L598.364 410.547ZM212.198 360.961C211.524 360.96 210.854 360.866 210.205 360.683C208.122 360.148 206.337 358.808 205.242 356.957C204.146 355.106 203.832 352.895 204.366 350.812L205.015 348.402C205.226 347.308 205.661 346.269 206.292 345.35C206.923 344.431 207.737 343.652 208.683 343.061C209.628 342.471 210.686 342.082 211.788 341.919C212.891 341.755 214.015 341.821 215.092 342.111C216.168 342.402 217.173 342.911 218.043 343.608C218.914 344.304 219.631 345.172 220.151 346.158C220.671 347.144 220.982 348.227 221.065 349.339C221.148 350.451 221 351.567 220.632 352.62L220.076 354.89C219.651 356.625 218.667 358.172 217.278 359.294C215.888 360.415 214.169 361.05 212.383 361.1L212.198 360.961ZM591.829 359.803C590.035 359.807 588.29 359.212 586.871 358.112C585.453 357.012 584.441 355.471 583.998 353.732L583.395 351.507C582.885 349.458 583.194 347.291 584.256 345.466C585.319 343.641 587.052 342.303 589.086 341.735C591.12 341.168 593.295 341.416 595.149 342.428C597.002 343.439 598.389 345.134 599.013 347.151L599.661 349.607C599.94 350.639 600.011 351.716 599.87 352.775C599.729 353.834 599.379 354.855 598.84 355.778C598.301 356.701 597.584 357.507 596.73 358.15C595.877 358.793 594.904 359.26 593.869 359.524C593.269 359.737 592.647 359.877 592.015 359.942L591.829 359.803ZM231.383 313.461C229.963 313.472 228.565 313.107 227.33 312.403C226.096 311.7 225.07 310.683 224.355 309.456C223.64 308.228 223.262 306.833 223.259 305.413C223.256 303.992 223.629 302.596 224.34 301.366L225.591 299.188C226.055 298.145 226.734 297.212 227.583 296.45C228.433 295.687 229.433 295.113 230.52 294.764C231.607 294.415 232.755 294.299 233.889 294.425C235.024 294.55 236.119 294.913 237.103 295.491C238.088 296.068 238.939 296.847 239.602 297.776C240.265 298.705 240.724 299.764 240.95 300.882C241.175 302.001 241.162 303.155 240.911 304.269C240.66 305.382 240.177 306.43 239.493 307.344L238.381 309.336C237.72 310.586 236.743 311.642 235.548 312.398C234.353 313.154 232.981 313.584 231.569 313.646L231.383 313.461ZM572.32 312.395C570.902 312.397 569.508 312.026 568.28 311.318C567.051 310.61 566.031 309.591 565.322 308.363L564.117 306.324C563.469 305.41 563.016 304.372 562.789 303.274C562.562 302.177 562.565 301.044 562.797 299.948C563.03 298.851 563.487 297.815 564.141 296.904C564.794 295.993 565.629 295.228 566.592 294.656C567.556 294.084 568.628 293.718 569.741 293.581C570.853 293.445 571.982 293.54 573.055 293.861C574.129 294.182 575.125 294.723 575.979 295.448C576.834 296.173 577.528 297.068 578.02 298.075L579.317 300.253C580.039 301.485 580.421 302.886 580.425 304.313C580.428 305.741 580.052 307.144 579.336 308.378C578.62 309.613 577.588 310.636 576.348 311.341C575.107 312.047 573.701 312.41 572.273 312.395H572.32ZM262.247 272.634C260.626 272.657 259.035 272.194 257.68 271.305C256.324 270.416 255.267 269.14 254.643 267.644C254.02 266.147 253.859 264.498 254.182 262.91C254.505 261.321 255.296 259.866 256.454 258.731L258.215 256.97C259.739 255.452 261.804 254.602 263.955 254.606C266.106 254.611 268.167 255.469 269.685 256.993C271.203 258.517 272.053 260.582 272.049 262.733C272.044 264.884 271.186 266.945 269.662 268.463L267.993 270.085C267.294 270.887 266.442 271.542 265.488 272.011C264.533 272.48 263.494 272.755 262.432 272.819L262.247 272.634ZM541.224 271.707C540.158 271.71 539.102 271.503 538.116 271.097C537.13 270.692 536.233 270.096 535.478 269.343L533.856 267.721C532.314 266.222 531.43 264.171 531.4 262.02C531.369 259.869 532.194 257.794 533.694 256.252C535.193 254.709 537.244 253.826 539.395 253.795C541.546 253.765 543.621 254.59 545.163 256.09L546.971 257.897C547.727 258.651 548.328 259.546 548.737 260.532C549.147 261.518 549.358 262.576 549.358 263.643C549.358 264.711 549.147 265.769 548.737 266.755C548.328 267.741 547.727 268.636 546.971 269.39C545.522 270.928 543.522 271.828 541.41 271.892L541.224 271.707ZM302.564 241.075C300.777 241.091 299.035 240.516 297.608 239.44C296.182 238.364 295.15 236.846 294.675 235.124C294.199 233.401 294.306 231.569 294.978 229.914C295.651 228.258 296.852 226.871 298.394 225.968L300.618 224.716C301.532 224.006 302.587 223.5 303.713 223.231C304.838 222.962 306.008 222.938 307.144 223.159C308.28 223.38 309.356 223.842 310.299 224.513C311.241 225.184 312.03 226.049 312.61 227.051C313.191 228.052 313.551 229.165 313.665 230.317C313.78 231.469 313.646 232.631 313.274 233.727C312.902 234.823 312.299 235.827 311.507 236.67C310.715 237.514 309.752 238.178 308.681 238.619L306.642 239.824C305.489 240.628 304.149 241.123 302.75 241.26L302.564 241.075ZM500.722 240.426C499.292 240.437 497.885 240.069 496.644 239.36L494.605 238.155C493.056 236.952 491.996 235.227 491.621 233.302C491.246 231.376 491.582 229.38 492.566 227.684C493.55 225.987 495.116 224.704 496.974 224.073C498.831 223.443 500.854 223.506 502.668 224.253L504.8 225.504C506.335 226.403 507.532 227.782 508.206 229.429C508.88 231.075 508.994 232.898 508.53 234.615C508.067 236.333 507.051 237.85 505.64 238.934C504.229 240.017 502.501 240.607 500.722 240.612V240.426ZM349.833 221.472C347.86 221.49 345.947 220.788 344.455 219.498C342.962 218.207 341.991 216.416 341.724 214.461C341.457 212.506 341.912 210.52 343.003 208.876C344.095 207.232 345.749 206.043 347.655 205.531L350.111 204.882C351.159 204.547 352.265 204.428 353.361 204.533C354.456 204.639 355.519 204.966 356.484 205.496C357.449 206.025 358.296 206.745 358.974 207.613C359.652 208.48 360.146 209.476 360.426 210.541C360.706 211.605 360.767 212.716 360.604 213.804C360.441 214.893 360.059 215.937 359.48 216.873C358.901 217.809 358.137 218.617 357.235 219.249C356.334 219.88 355.313 220.321 354.235 220.546L352.011 221.148C351.302 221.35 350.57 221.459 349.833 221.472ZM453.685 221.148C452.98 221.147 452.279 221.053 451.599 220.87L449.329 220.268C448.289 220.011 447.31 219.55 446.449 218.913C445.588 218.276 444.862 217.474 444.312 216.555C443.763 215.635 443.401 214.616 443.247 213.556C443.094 212.496 443.152 211.416 443.418 210.378C443.685 209.341 444.154 208.366 444.799 207.511C445.444 206.656 446.252 205.937 447.176 205.396C448.101 204.855 449.123 204.502 450.184 204.358C451.246 204.214 452.325 204.282 453.36 204.558L455.816 205.206C457.718 205.718 459.369 206.903 460.461 208.542C461.552 210.181 462.011 212.161 461.75 214.113C461.489 216.065 460.526 217.855 459.042 219.15C457.558 220.444 455.654 221.154 453.685 221.148ZM400.577 214.336V198.116H403.033C405.184 198.116 407.247 198.971 408.768 200.491C410.289 202.012 411.143 204.075 411.143 206.226C411.143 208.377 410.289 210.44 408.768 211.96C407.247 213.481 405.184 214.336 403.033 214.336H400.577Z" fill="#F6F6F6"/>
</svg>
