<svg width="48" height="44" viewBox="0 0 48 44" fill="none" xmlns="http://www.w3.org/2000/svg">
<path d="M24 7.28216C24.7584 7.28216 25.3733 6.66729 25.3733 5.90887V1.37328C25.3733 0.614865 24.7584 0 24 0C23.2416 0 22.6267 0.614865 22.6267 1.37328V5.90887C22.6267 6.66729 23.2416 7.28216 24 7.28216Z" fill="#F4E861"/>
<path d="M30.4087 9.61298C30.7602 9.61298 31.1117 9.47886 31.3797 9.2107L35.0418 5.54861C35.5781 5.01239 35.5781 4.14282 35.0418 3.60651C34.5056 3.07029 33.636 3.07029 33.0997 3.60651L29.4376 7.2686C28.9013 7.80482 28.9013 8.67439 29.4376 9.2107C29.7058 9.47886 30.0573 9.61298 30.4087 9.61298Z" fill="#F4E861"/>
<path d="M16.6203 9.2107C16.8885 9.47886 17.2399 9.61298 17.5913 9.61298C17.9427 9.61298 18.2943 9.47886 18.5623 9.2107C19.0986 8.67448 19.0986 7.80491 18.5623 7.2686L14.9002 3.60651C14.364 3.07029 13.4945 3.07029 12.9581 3.60651C12.4218 4.14273 12.4218 5.0123 12.9581 5.54861L16.6203 9.2107Z" fill="#F4E861"/>
<path d="M36.335 19.4097L31.0041 14.0787C29.9738 13.0484 28.5766 12.4697 27.1197 12.4697H18.7812C16.7025 12.4697 14.7483 13.2792 13.2785 14.749L12.8396 15.1878L12.8112 15.2162H1.93603C1.17761 15.2162 0.562744 15.8311 0.562744 16.5895V31.2378C0.562744 31.9963 1.17761 32.6111 1.93603 32.6111H8.78295L12.0428 35.8709C12.3004 36.1285 12.6497 36.2732 13.0139 36.2732H14.2573C13.7971 35.5609 13.5008 34.7651 13.3848 33.932C12.3582 33.5981 11.4343 32.9815 10.7228 32.1334C8.65422 29.668 8.97694 25.9795 11.4422 23.9108L16.6617 19.5312H27.0835C27.4477 19.5312 27.7971 19.6758 28.0546 19.9334L31.8889 23.7677C33.1205 24.9993 35.1623 25.0256 36.3727 23.7732C37.5485 22.5568 37.5358 20.6106 36.335 19.4097Z" fill="#F4E861"/>
<path d="M47.4375 19.4277C47.4375 18.6691 46.8226 18.0544 46.0642 18.0544H38.7889C40.5448 20.3497 40.3752 23.6556 38.2771 25.7539C37.1713 26.8597 35.6998 27.4686 34.1339 27.4686C32.5679 27.4686 31.0965 26.8597 29.9908 25.7539L26.5148 22.2778H17.4044L16.3256 23.183L12.8416 26.1065C11.5343 27.2034 11.3639 29.1523 12.4608 30.4596C13.5576 31.7669 15.5066 31.9373 16.8139 30.8404C15.5066 31.9373 15.3361 33.8863 16.433 35.1936C17.5299 36.5008 19.4789 36.6713 20.7861 35.5744C19.4789 36.6713 19.3084 38.6203 20.4053 39.9276C21.5022 41.2348 23.4511 41.4053 24.7584 40.3084L27.1905 38.2676L26.8625 38.5429C25.5552 39.6398 25.3847 41.5888 26.4816 42.896C27.5785 44.2033 29.5275 44.3738 30.8347 43.2769L40.1634 35.4492H46.0644C46.8228 35.4492 47.4376 34.8343 47.4376 34.0759L47.4375 19.4277Z" fill="#F4E861"/>
</svg>
